<?xml version="1.0" standalone="no"?>
<!DOCTYPE svg PUBLIC "-//W3C//DTD SVG 20010904//EN"
 "http://www.w3.org/TR/2001/REC-SVG-20010904/DTD/svg10.dtd">
<svg version="1.0" xmlns="http://www.w3.org/2000/svg"
 width="200.000000pt" height="200.000000pt" viewBox="0 0 200.000000 200.000000"
 preserveAspectRatio="xMidYMid meet">
<metadata>
Created by potrace 1.11, written by Peter Selinger 2001-2013
</metadata>
<g transform="translate(0.000000,200.000000) scale(0.100000,-0.100000)"
fill="#000000" stroke="none">
<path d="M229 1993 c-1 -5 -2 -455 -3 -1000 l-1 -993 161 0 162 0 0 686 c0
377 2 687 4 689 2 2 18 -73 36 -168 38 -202 34 -181 72 -371 16 -83 32 -162
34 -176 3 -14 10 -50 15 -80 6 -30 13 -65 15 -77 3 -12 26 -130 51 -262 l47
-241 174 0 c172 0 174 0 178 23 12 53 28 140 31 167 2 16 18 105 34 197 17 92
33 184 36 203 3 19 10 55 15 80 5 25 17 88 25 140 19 111 23 137 29 168 3 13
14 78 26 145 11 67 23 128 25 135 2 7 7 32 11 57 3 24 9 56 13 71 4 15 7 -290
7 -677 l0 -704 175 -3 174 -2 0 997 0 998 -258 3 c-169 1 -257 -1 -258 -8 -1
-5 -2 -13 -3 -17 -1 -5 -5 -30 -10 -58 -4 -27 -19 -111 -32 -185 -14 -74 -27
-150 -30 -169 -3 -18 -8 -43 -10 -55 -11 -56 -130 -734 -140 -796 -3 -19 -9
-50 -14 -69 -5 -19 -7 -39 -3 -45 4 -7 2 -8 -5 -1 -5 6 -13 28 -16 50 -3 22
-12 74 -20 115 -8 41 -17 86 -19 100 -16 88 -69 363 -77 400 -5 25 -23 119
-40 210 -17 91 -35 185 -41 210 -11 52 -14 68 -24 130 -4 25 -11 61 -15 80 -5
19 -12 52 -15 73 l-6 37 -254 0 c-140 0 -256 -3 -256 -7z"/>
</g>
</svg>
