<?xml version="1.0" encoding="utf-8"?>
<!-- Generator: Adobe Illustrator 22.1.0, SVG Export Plug-In . SVG Version: 6.00 Build 0)  -->
<svg version="1.1" id="Capa_1" xmlns="http://www.w3.org/2000/svg" xmlns:xlink="http://www.w3.org/1999/xlink" x="0px" y="0px"
	 viewBox="0 0 62 54" style="enable-background:new 0 0 62 54;" xml:space="preserve">
<style type="text/css">
	.st0{fill:#F63440;}
</style>
<g>
	<path class="st0" d="M31.2,11.8c-3.8,0-6.9,3.1-6.9,6.9s3.1,6.9,6.9,6.9s6.9-3.1,6.9-6.9S35,11.8,31.2,11.8z M31.2,23.7
		c-2.7,0-4.9-2.2-4.9-4.9s2.2-4.9,4.9-4.9s4.9,2.2,4.9,4.9S33.9,23.7,31.2,23.7z"/>
	<path class="st0" d="M44.4,5.5C40.8,2,36.1,0,31,0c-5.1,0-9.8,2-13.4,5.5c-6.6,6.6-7.4,19-1.8,26.6L31,54l15.1-21.9
		C51.8,24.6,51,12.1,44.4,5.5z M44.5,31L31,50.5L17.5,31c-5.1-6.8-4.4-18.1,1.6-24c3.2-3.2,7.5-5,12-5s8.8,1.8,12,5
		C48.9,12.9,49.7,24.1,44.5,31z"/>
</g>
</svg>
