<svg id="Capa_1" xmlns="http://www.w3.org/2000/svg" viewBox="0 0 62 54">
    <style>
        .st0{fill:#f63440}
    </style>
    <path class="st0" d="M31.2 11.8c-3.8 0-6.9 3.1-6.9 6.9s3.1 6.9 6.9 6.9 6.9-3.1 6.9-6.9-3.1-6.9-6.9-6.9zm0 11.9c-2.7 0-4.9-2.2-4.9-4.9s2.2-4.9 4.9-4.9 4.9 2.2 4.9 4.9-2.2 4.9-4.9 4.9z"/>
    <path class="st0" d="M44.4 5.5C40.8 2 36.1 0 31 0s-9.8 2-13.4 5.5c-6.6 6.6-7.4 19-1.8 26.6L31 54l15.1-21.9c5.7-7.5 4.9-20-1.7-26.6zm.1 25.5L31 50.5 17.5 31c-5.1-6.8-4.4-18.1 1.6-24 3.2-3.2 7.5-5 12-5s8.8 1.8 12 5c5.8 5.9 6.6 17.1 1.4 24z"/>
</svg>
