<svg xmlns="http://www.w3.org/2000/svg" id="Слой_1" viewBox="0 0 58.3 51.7">
    <style id="style3739">
        .st0{fill:#191919}
    </style>
    <g id="g3745">
        <path class="st0" d="M23.8 38.2h10.8c.5 0 .9-.4.9-.9s-.4-.9-.9-.9H23.8c-.5 0-.9.4-.9.9s.4.9.9.9z" id="path3741"/>
        <path class="st0" d="M54 31.6h-2.2V3.9H39.9c-.5 0-.9.4-.9.9v3.1l-.4-.2c-.6-.5-1.3-.7-2.1-.7h-.6c-1 .2-1.9.7-2.5 1.6l-.6.8c-.2.2-.2.3-.2.6 0 .2.2.4.3.5l7.3 5c.2.1.3.2.5.2.3 0 .6-.1.7-.4v-.1l.6-.8c.6-.8.8-1.7.6-2.7-.2-1-.7-1.9-1.6-2.5l-.5-.3V5.7H50v25.9H4.4c-.4 0-.8.3-.9.7v.4C3.5 40.5 9.2 47 16.8 48l-.9 2.4c-.2.4 0 1 .5 1.1.4.2 1 0 1.1-.5v-.1l1-2.9h21.1l1 2.9c.1.5.6.7 1.1.6s.7-.6.6-1.1v-.1l-.8-2.3c7.6-1.1 13.3-7.6 13.3-15.3v-.3c0-.4-.3-.8-.7-.9 0 .1-.1.1-.1.1zM40.7 13.3l-.1.2-5.8-4 .2-.3c.7-.8 1.8-.9 2.6-.3l2.5 1.8c.5.3.8.7.9 1.2 0 .4-.1.9-.3 1.4zm12.4 20.3c-.5 7.2-6.4 12.9-13.7 12.9H18.9c-7.2-.1-13.1-5.6-13.7-12.7v-.3h.2v-.1h47.7v.2z" id="path3743"/>
    </g>
</svg>
