<?xml version="1.0" encoding="utf-8"?>
<!-- Generator: Adobe Illustrator 22.1.0, SVG Export Plug-In . SVG Version: 6.00 Build 0)  -->
<svg version="1.1" id="Слой_1" xmlns="http://www.w3.org/2000/svg" xmlns:xlink="http://www.w3.org/1999/xlink" x="0px" y="0px"
	 viewBox="0 0 58.3 51.7" style="enable-background:new 0 0 58.3 51.7;" xml:space="preserve">
<style type="text/css">
	.st0{fill:#191919;}
</style>
<g>
	<path class="st0" d="M23.8,38.2h10.8c0.5,0,0.9-0.4,0.9-0.9c0-0.5-0.4-0.9-0.9-0.9H23.8c-0.5,0-0.9,0.4-0.9,0.9
		C22.9,37.8,23.3,38.2,23.8,38.2z"/>
	<path class="st0" d="M54,31.6h-2.2V3.9H39.9c-0.5,0-0.9,0.4-0.9,0.9v3.1l-0.4-0.2c-0.6-0.5-1.3-0.7-2.1-0.7c-0.2,0-0.4,0-0.6,0
		c-1,0.2-1.9,0.7-2.5,1.6l-0.6,0.8c-0.2,0.2-0.2,0.3-0.2,0.6c0,0.2,0.2,0.4,0.3,0.5l7.3,5c0.2,0.1,0.3,0.2,0.5,0.2
		c0.3,0,0.6-0.1,0.7-0.4l0-0.1l0.6-0.8c0.6-0.8,0.8-1.7,0.6-2.7c-0.2-1-0.7-1.9-1.6-2.5l-0.5-0.3c0-0.1,0-0.2,0-0.2v-3H50v25.9H4.4
		c-0.4,0-0.8,0.3-0.9,0.7c0,0,0,0.1,0,0.1v0.3C3.5,40.5,9.2,47,16.8,48l-0.9,2.4c-0.2,0.4,0,1,0.5,1.1c0.4,0.2,1,0,1.1-0.5
		c0,0,0,0,0-0.1l1-2.9c0.1,0,0.2,0,0.3,0h20.5c0.1,0,0.2,0,0.3,0l1,2.9c0.1,0.5,0.6,0.7,1.1,0.6s0.7-0.6,0.6-1.1c0,0,0,0,0-0.1
		L41.5,48c7.6-1.1,13.3-7.6,13.3-15.3v-0.3c0-0.4-0.3-0.8-0.7-0.9C54.1,31.6,54,31.6,54,31.6z M40.7,13.3l-0.1,0.2l-5.8-4L35,9.2
		c0.7-0.8,1.8-0.9,2.6-0.3l2.5,1.8c0.5,0.3,0.8,0.7,0.9,1.2C41,12.3,40.9,12.8,40.7,13.3z M53.1,33.6c-0.5,7.2-6.4,12.9-13.7,12.9
		H18.9c-7.2-0.1-13.1-5.6-13.7-12.7h0v-0.3l0.2,0v-0.1h47.7L53.1,33.6z"/>
</g>
</svg>
