<?xml version="1.0" encoding="utf-8"?>
<!-- Generator: Adobe Illustrator 22.1.0, SVG Export Plug-In . SVG Version: 6.00 Build 0)  -->
<svg version="1.1" id="Capa_1" xmlns="http://www.w3.org/2000/svg" xmlns:xlink="http://www.w3.org/1999/xlink" x="0px" y="0px"
	 viewBox="0 0 62 54" style="enable-background:new 0 0 62 54;" xml:space="preserve">
<style type="text/css">
	.st0{fill:#F63440;}
</style>
<g>
	<path class="st0" d="M31,0C16.1,0,4,12.2,4,27s12.2,27,27,27c14.9,0,27-12.2,27-27S45.9,0,31,0z M31,52.2
		C17.1,52.2,5.8,40.9,5.8,27S17.1,1.8,31,1.8c13.9,0,25.2,11.3,25.2,25.2S44.9,52.2,31,52.2z"/>
	<path class="st0" d="M31,8.9c0.5,0,0.9-0.4,0.9-0.9V7.1c0-0.5-0.4-0.9-0.9-0.9c-0.5,0-0.9,0.4-0.9,0.9V8C30.1,8.5,30.5,8.9,31,8.9z
		"/>
	<path class="st0" d="M31,44.9c-0.5,0-0.9,0.4-0.9,0.9v0.9c0,0.5,0.4,0.9,0.9,0.9c0.5,0,0.9-0.4,0.9-0.9v-0.9
		C31.9,45.3,31.5,44.9,31,44.9z"/>
	<path class="st0" d="M50.8,26h-0.9c-0.5,0-0.9,0.4-0.9,0.9c0,0.5,0.4,0.9,0.9,0.9h0.9c0.5,0,0.9-0.4,0.9-0.9
		C51.7,26.4,51.3,26,50.8,26z"/>
	<path class="st0" d="M12.1,26h-0.9c-0.5,0-0.9,0.4-0.9,0.9c0,0.5,0.4,0.9,0.9,0.9h0.9c0.5,0,0.9-0.4,0.9-0.9
		C13,26.4,12.6,26,12.1,26z"/>
	<path class="st0" d="M44.3,14.4c0.2,0,0.5-0.1,0.6-0.3l0.6-0.6c0.4-0.4,0.4-0.9,0-1.3s-0.9-0.4-1.3,0l-0.6,0.6
		c-0.4,0.4-0.4,0.9,0,1.3C43.9,14.3,44.1,14.4,44.3,14.4z"/>
	<path class="st0" d="M17,39.6l-0.6,0.6c-0.4,0.4-0.4,0.9,0,1.3c0.2,0.2,0.5,0.3,0.6,0.3s0.5-0.1,0.6-0.3l0.6-0.6
		c0.4-0.4,0.4-0.9,0-1.3C17.9,39.2,17.3,39.2,17,39.6z"/>
	<path class="st0" d="M45,39.6c-0.4-0.4-0.9-0.4-1.3,0c-0.4,0.4-0.4,0.9,0,1.3l0.6,0.6c0.2,0.2,0.5,0.3,0.6,0.3s0.5-0.1,0.6-0.3
		c0.4-0.4,0.4-0.9,0-1.3L45,39.6z"/>
	<path class="st0" d="M17.7,12.2c-0.4-0.4-0.9-0.4-1.3,0c-0.4,0.4-0.4,0.9,0,1.3l0.6,0.6c0.2,0.2,0.4,0.3,0.6,0.3
		c0.2,0,0.4-0.1,0.6-0.3c0.4-0.4,0.4-0.9,0-1.3L17.7,12.2z"/>
	<path class="st0" d="M29.2,23.8l-4.5-4.5c-0.4-0.4-0.9-0.4-1.3,0c-0.4,0.4-0.4,0.9,0,1.3l4.5,4.5c-0.8,1.3-0.7,3.1,0.6,4.3
		c0.4,0.5,1,0.8,1.6,1v9.1c0,0.3,0.1,0.5,0.3,0.6c0.2,0.2,0.4,0.3,0.6,0.3c0.5,0,0.9-0.4,0.9-0.9v-9.1c0.6-0.2,1.2-0.5,1.6-1
		c1.4-1.3,1.4-3.6,0-5C32.4,23.2,30.6,23,29.2,23.8z M32.3,28.2c-0.6,0.7-1.8,0.7-2.5,0c-0.7-0.7-0.7-1.8,0-2.5
		c0.4-0.4,0.8-0.5,1.3-0.5c0.5,0,0.9,0.2,1.3,0.5C33,26.4,33,27.5,32.3,28.2z"/>
</g>
</svg>
