<svg id="Capa_1" xmlns="http://www.w3.org/2000/svg" viewBox="0 0 62 54"><style>.st0{fill:#f63440}</style><path class="st0" d="M31 0C16.1 0 4 12.2 4 27s12.2 27 27 27c14.9 0 27-12.2 27-27S45.9 0 31 0zm0 52.2C17.1 52.2 5.8 40.9 5.8 27S17.1 1.8 31 1.8c13.9 0 25.2 11.3 25.2 25.2S44.9 52.2 31 52.2z"/><path class="st0" d="M31 8.9c.5 0 .9-.4.9-.9v-.9c0-.5-.4-.9-.9-.9s-.9.4-.9.9V8c0 .5.4.9.9.9zM31 44.9c-.5 0-.9.4-.9.9v.9c0 .5.4.9.9.9s.9-.4.9-.9v-.9c0-.5-.4-.9-.9-.9zM50.8 26h-.9c-.5 0-.9.4-.9.9s.4.9.9.9h.9c.5 0 .9-.4.9-.9s-.4-.9-.9-.9zM12.1 26h-.9c-.5 0-.9.4-.9.9s.4.9.9.9h.9c.5 0 .9-.4.9-.9s-.4-.9-.9-.9zM44.3 14.4c.2 0 .5-.1.6-.3l.6-.6c.4-.4.4-.9 0-1.3s-.9-.4-1.3 0l-.6.6c-.4.4-.4.9 0 1.3.3.2.5.3.7.3zM17 39.6l-.6.6c-.4.4-.4.9 0 1.3.2.2.5.3.6.3s.5-.1.6-.3l.6-.6c.4-.4.4-.9 0-1.3-.3-.4-.9-.4-1.2 0zM45 39.6c-.4-.4-.9-.4-1.3 0s-.4.9 0 1.3l.6.6c.2.2.5.3.6.3s.5-.1.6-.3c.4-.4.4-.9 0-1.3l-.5-.6zM17.7 12.2c-.4-.4-.9-.4-1.3 0s-.4.9 0 1.3l.6.6c.2.2.4.3.6.3.2 0 .4-.1.6-.3.4-.4.4-.9 0-1.3l-.5-.6zM29.2 23.8l-4.5-4.5c-.4-.4-.9-.4-1.3 0s-.4.9 0 1.3l4.5 4.5c-.8 1.3-.7 3.1.6 4.3.4.5 1 .8 1.6 1v9.1c0 .3.1.5.3.6.2.2.4.3.6.3.5 0 .9-.4.9-.9v-9.1c.6-.2 1.2-.5 1.6-1 1.4-1.3 1.4-3.6 0-5-1.1-1.2-2.9-1.4-4.3-.6zm3.1 4.4c-.6.7-1.8.7-2.5 0s-.7-1.8 0-2.5c.4-.4.8-.5 1.3-.5s.9.2 1.3.5c.6.7.6 1.8-.1 2.5z"/></svg>