<?xml version="1.0" encoding="utf-8"?>
<!-- Generator: Adobe Illustrator 22.1.0, SVG Export Plug-In . SVG Version: 6.00 Build 0)  -->
<svg version="1.1" id="Слой_1" xmlns="http://www.w3.org/2000/svg" xmlns:xlink="http://www.w3.org/1999/xlink" x="0px" y="0px"
	 viewBox="0 0 98 112" style="enable-background:new 0 0 98 112;" xml:space="preserve">
<style type="text/css">
	.st0{fill:#F63440;}
</style>
<path class="st0" d="M85.384613,34.1455307V9.4615431h-8.4615402V1H4.1538477v93.0769196h8.4615421v8.4615402h8.4615316V111
	h72.7692337V42.6070747L85.384613,34.1455307z M88.0686111,41.6153488H70.1538467V23.700613l15.230751,15.2307529
	L88.0686111,41.6153488z M7.5384665,90.6922989V4.3846192h65.9999924v5.0769229h-60.923069v81.2307587H7.5384665z
	 M21.0769215,99.1538467h-5.0769234V12.8461514h66v17.914772L69.1621552,17.9230747H21.0769234L21.0769215,99.1538467z
	 M90.4615402,107.6153793h-66V21.3076935h42.3076935v23.6923027h23.6922989L90.4615402,107.6153793z"/>
<path class="st0" d="M77.5771942,51.8550491H51.2876129c-0.9074593,0.0022354-1.6412888,0.7396851-1.6390533,1.6471443
	c0.0022278,0.9043007,0.7347527,1.6368256,1.6390533,1.6390533h26.2895813
	c0.9074554,0.0022354,1.6449127-0.7315941,1.6471481-1.6390533s-0.7315903-1.6449089-1.6390533-1.6471443
	C77.5825882,51.8550415,77.579895,51.8550415,77.5771942,51.8550491z"/>
<path class="st0" d="M45.3313866,47.2855873l-7.066967,5.6539116l-2.2461281-2.2461128
	c-0.6430893-0.6400528-1.6832848-0.6375885-2.3233376,0.0055046c-0.6379089,0.6409416-0.6379089,1.6768951,0,2.3178368
	l3.2861977,3.286232c0.5914192,0.5920715,1.5335579,0.6444511,2.1869659,0.1215858l8.2154999-6.5724525
	c0.7072678-0.568531,0.8197327-1.6027718,0.2512054-2.3100395c-0.5664635-0.7046967-1.5958328-0.819313-2.3034363-0.256485
	V47.2855873z"/>
<path class="st0" d="M77.5771942,69.9291382H51.2876129c-0.9074593,0.0022354-1.6412888,0.7396851-1.6390533,1.6471405
	c0.0022278,0.9042969,0.7347527,1.6368256,1.6390533,1.6390533h26.2895813
	c0.9074554,0.0022354,1.6449127-0.7315903,1.6471481-1.6390533c0.0022354-0.9074554-0.7315903-1.6449051-1.6390533-1.6471405
	C77.5825882,69.9291306,77.579895,69.9291306,77.5771942,69.9291382z"/>
<path class="st0" d="M45.3313866,65.3596649l-7.0669632,5.6539078l-2.2461281-2.2461166
	c-0.6432953-0.6398468-1.6834908-0.6370468-2.3233376,0.0062485c-0.6374092,0.6408539-0.6374092,1.6762314,0,2.3170853
	l3.2861938,3.286171c0.5914192,0.5920639,1.5335579,0.6444473,2.1869659,0.121582l8.2154961-6.5723953
	c0.7074814-0.5682602,0.820343-1.6024551,0.2520828-2.3099365c-0.5665016-0.7052917-1.5965424-0.8199844-2.3043137-0.2565918
	L45.3313866,65.3596649z"/>
<path class="st0" d="M77.5771942,88.003212H51.2876129c-0.9074593,0.0022354-1.6412888,0.7396851-1.6390533,1.6471405
	c0.0022278,0.9042969,0.7347527,1.6368256,1.6390533,1.6390533h26.2895813
	c0.9074554,0.0022354,1.6449127-0.7315903,1.6471481-1.6390533c0.0022354-0.9074554-0.7315903-1.6449051-1.6390533-1.6471405
	C77.5825882,88.0032043,77.579895,88.0032043,77.5771942,88.003212z"/>
<path class="st0" d="M45.3313866,83.4337616l-7.0669632,5.6539078l-2.2461281-2.2461166
	c-0.6432953-0.6398468-1.6834908-0.6370468-2.3233376,0.0062485c-0.6374092,0.6408539-0.6374092,1.6762314,0,2.3170853
	l3.2861977,3.2862015c0.591423,0.5920563,1.5335579,0.6444397,2.1869659,0.121582l8.2154961-6.5723953
	c0.7087212-0.5667038,0.8238487-1.600647,0.2571411-2.3093643C47.0740509,82.9821777,46.0401115,82.8670578,45.3313866,83.4337616
	L45.3313866,83.4337616z"/>
</svg>
