<svg id="Слой_1" xmlns="http://www.w3.org/2000/svg" viewBox="0 0 98 112">
    <style>
        .st0{fill:#f63440}
    </style>
    <path class="st0" d="M85.385 34.146V9.462h-8.462V1H4.153v93.077h8.462v8.461h8.462V111h72.77V42.607l-8.462-8.461zm2.684 7.47H70.154V23.7l15.23 15.23 2.685 2.684zM7.539 90.691V4.385h66v5.077H12.614v81.23H7.538zm13.538 8.462H16V12.846h66v17.915L69.162 17.923H21.077v81.23zm69.385 8.461h-66V21.308h42.307V45h23.693v62.615z"/>
    <path class="st0" d="M77.577 51.855h-26.29a1.643 1.643 0 0 0 0 3.286h26.29a1.643 1.643 0 1 0 0-3.286zM45.331 47.286l-7.067 5.653-2.246-2.246a1.643 1.643 0 0 0-2.323 2.324l3.286 3.286a1.642 1.642 0 0 0 2.187.122l8.216-6.573a1.643 1.643 0 0 0-2.053-2.566zM77.577 69.93h-26.29a1.643 1.643 0 0 0 0 3.285h26.29a1.643 1.643 0 1 0 0-3.286zM45.331 65.36l-7.067 5.654-2.246-2.247a1.643 1.643 0 0 0-2.323 2.324l3.286 3.286a1.642 1.642 0 0 0 2.187.122l8.216-6.573a1.643 1.643 0 0 0-2.053-2.566zM77.577 88.003h-26.29a1.643 1.643 0 0 0 0 3.286h26.29a1.643 1.643 0 1 0 0-3.286zM45.331 83.434l-7.067 5.654-2.246-2.246a1.643 1.643 0 0 0-2.323 2.323l3.286 3.286a1.642 1.642 0 0 0 2.187.122L47.384 86a1.643 1.643 0 1 0-2.053-2.566z"/>
</svg>
