<?xml version="1.0" encoding="UTF-8" standalone="no"?>
<!-- Generator: Adobe Illustrator 22.1.0, SVG Export Plug-In . SVG Version: 6.00 Build 0)  -->

<svg
   xmlns:dc="http://purl.org/dc/elements/1.1/"
   xmlns:cc="http://creativecommons.org/ns#"
   xmlns:rdf="http://www.w3.org/1999/02/22-rdf-syntax-ns#"
   xmlns:svg="http://www.w3.org/2000/svg"
   xmlns="http://www.w3.org/2000/svg"
   xmlns:sodipodi="http://sodipodi.sourceforge.net/DTD/sodipodi-0.dtd"
   xmlns:inkscape="http://www.inkscape.org/namespaces/inkscape"
   version="1.1"
   id="Слой_1"
   x="0px"
   y="0px"
   viewBox="0 0 58.3 51.7"
   style="enable-background:new 0 0 58.3 51.7;"
   xml:space="preserve"
   sodipodi:docname="discount.svg"
   inkscape:version="0.92.2 (5c3e80d, 2017-08-06)"><metadata
     id="metadata3752"><rdf:RDF><cc:Work
         rdf:about=""><dc:format>image/svg+xml</dc:format><dc:type
           rdf:resource="http://purl.org/dc/dcmitype/StillImage" /><dc:title></dc:title></cc:Work></rdf:RDF></metadata><defs
     id="defs3750" /><sodipodi:namedview
     pagecolor="#ffffff"
     bordercolor="#666666"
     borderopacity="1"
     objecttolerance="10"
     gridtolerance="10"
     guidetolerance="10"
     inkscape:pageopacity="0"
     inkscape:pageshadow="2"
     inkscape:window-width="1920"
     inkscape:window-height="1017"
     id="namedview3748"
     showgrid="false"
     inkscape:zoom="4.5647968"
     inkscape:cx="24.400472"
     inkscape:cy="12.150668"
     inkscape:window-x="-8"
     inkscape:window-y="-8"
     inkscape:window-maximized="1"
     inkscape:current-layer="Слой_1" /><style
     type="text/css"
     id="style3739">
	.st0{fill:#191919;}
</style><path
     inkscape:connector-curvature="0"
     class="a"
     d="M 54.293529,3.7628999 A 3.4244833,3.5162319 0 0 0 50.86148,0.22627554 H 50.84824 A 3.4443436,3.5366243 0 0 0 48.412043,1.2721142 c -0.271424,0.277725 -0.756584,0.8739598 -1.025171,1.2031514 a 0.90884521,0.93319493 0 0 0 0.118217,1.3167662 0.91451958,0.93902133 0 0 0 0.662009,0.2116925 0.90127938,0.92542639 0 0 0 0.615671,-0.3330758 c 0.415174,-0.5127231 0.756583,-0.9147447 0.912628,-1.0759418 a 1.6493507,1.69354 0 0 1 1.167029,-0.498157 1.6077387,1.6508131 0 0 1 1.607738,1.6595527 1.644622,1.6886847 0 0 1 -0.481376,1.1914985 27.809151,28.554211 0 0 1 -2.673575,2.1072144 5.1523296,5.2903704 0 0 0 -4.3617,-2.5014674 H 33.003286 A 5.0482994,5.1835531 0 0 0 29.409513,6.0798646 L 4.2531312,31.910234 l -0.084169,0.0874 19.0970978,19.608747 0.08511,0.08642 25.244339,-25.920678 a 5.1126089,5.2495857 0 0 0 1.485739,-3.684227 V 9.8174996 a 5.1315235,5.269007 0 0 0 -0.08795,-0.9710665 29.487819,30.277854 0 0 0 3.281678,-2.5791527 3.4452893,3.5375953 0 0 0 1.01855,-2.5043805 z M 42.015134,11.580957 a 0.90979094,0.93416599 0 0 0 0.4095,1.769283 0.9183025,0.94290559 0 0 0 0.408555,-0.09711 c 0.378292,-0.194213 0.784009,-0.412703 1.198239,-0.640904 a 1.6200331,1.663437 0 1 1 -0.840754,-1.65761 c -0.387748,0.207807 -0.782117,0.422414 -1.17554,0.626338 z m 2.886364,-1.6168263 -0.04445,-0.046611 a 3.4471808,3.5395375 0 0 0 -3.377196,-0.8982366 3.6174119,3.7143295 0 0 0 -2.514692,2.8549349 2.3066321,2.3684313 0 0 0 0,1.081769 3.5502653,3.6453838 0 0 0 3.46042,2.991855 3.4112431,3.5026369 0 0 0 2.431468,-1.033214 3.4528553,3.5453639 0 0 0 0.914521,-3.307453 c 0.824675,-0.494273 1.660698,-1.021562 2.490102,-1.571185 v 11.762528 a 4.1214853,4.2319079 0 0 1 -1.216207,2.92194 L 23.35023,49.048587 6.7460719,31.998601 30.702325,7.400515 A 3.230609,3.3171633 0 0 1 33.003286,6.42168 h 11.950227 a 3.3100502,3.3987328 0 0 1 2.855155,1.6838293 c -0.964644,0.6535278 -1.942527,1.2779235 -2.908116,1.8586214 z"
     id="path3778"
     style="stroke-width:0.95831382" /><path
     inkscape:connector-curvature="0"
     class="a"
     d="m 28.928137,16.76451 a 0.91168239,0.93610813 0 0 0 -0.910736,0.935136 v 17.147093 a 0.91073667,0.93513706 0 0 0 1.820528,0 V 17.697705 A 0.91168239,0.93610813 0 0 0 28.928137,16.76451 Z"
     id="path3780"
     style="stroke-width:0.95831382" /><path
     inkscape:connector-curvature="0"
     class="a"
     d="m 22.964373,22.741424 a 3.4377235,3.5298268 0 1 0 2.432414,1.030301 3.4150261,3.5065212 0 0 0 -2.432414,-1.030301 z m 1.620033,3.530797 a 1.6190874,1.6624659 0 1 1 -0.472864,-1.175961 1.6077387,1.6508131 0 0 1 0.471919,1.175961 z"
     id="path3782"
     style="stroke-width:0.95831382" /><path
     inkscape:connector-curvature="0"
     class="a"
     d="m 34.891907,22.741424 a 3.4358321,3.5278847 0 1 0 2.432414,1.030301 3.4131346,3.5045791 0 0 0 -2.432414,-1.030301 z m 1.145276,4.70676 a 1.6190874,1.6624659 0 1 1 0,-2.351924 1.6200331,1.663437 0 0 1 0,2.351924 z"
     id="path3784"
     style="stroke-width:0.95831382" /></svg>