<svg xmlns="http://www.w3.org/2000/svg" id="Слой_1" viewBox="0 0 58.3 51.7">
    <style id="style3739">
    </style>
    <path class="a" d="M54.294 3.763A3.424 3.516 0 0 0 50.86.226h-.013a3.444 3.537 0 0 0-2.436 1.046c-.271.278-.757.874-1.025 1.203a.909.933 0 0 0 .118 1.317.915.939 0 0 0 .662.212.901.925 0 0 0 .616-.333c.415-.513.756-.915.912-1.076a1.65 1.694 0 0 1 1.167-.498 1.608 1.65 0 0 1 1.608 1.66 1.645 1.689 0 0 1-.481 1.19 27.81 28.554 0 0 1-2.674 2.108 5.152 5.29 0 0 0-4.361-2.502h-11.95A5.048 5.184 0 0 0 29.41 6.08L4.253 31.91l-.084.088 19.097 19.608.085.087 25.245-25.92a5.113 5.25 0 0 0 1.485-3.685V9.818a5.132 5.269 0 0 0-.088-.972 29.488 30.278 0 0 0 3.282-2.579 3.445 3.538 0 0 0 1.019-2.504zM42.015 11.58a.91.934 0 0 0 .41 1.77.918.943 0 0 0 .408-.098c.378-.194.784-.413 1.198-.64a1.62 1.663 0 1 1-.84-1.658c-.388.207-.782.422-1.176.626zm2.886-1.617l-.044-.046a3.447 3.54 0 0 0-3.377-.899 3.617 3.714 0 0 0-2.515 2.855 2.307 2.368 0 0 0 0 1.082 3.55 3.645 0 0 0 3.46 2.992 3.411 3.503 0 0 0 2.432-1.033 3.453 3.545 0 0 0 .915-3.308 65.254 65.254 0 0 0 2.49-1.571v11.763a4.121 4.232 0 0 1-1.217 2.921L23.35 49.05 6.746 31.999 30.702 7.4a3.23 3.317 0 0 1 2.301-.98h11.95a3.31 3.399 0 0 1 2.856 1.685A64.176 64.176 0 0 1 44.9 9.964z" id="path3778" stroke-width=".958"/>
    <path class="a" d="M28.928 16.765a.912.936 0 0 0-.91.935v17.147a.91.935 0 0 0 1.82 0v-17.15a.912.936 0 0 0-.91-.932z" id="path3780" stroke-width=".958"/>
    <path class="a" d="M22.964 22.741a3.438 3.53 0 1 0 2.433 1.03 3.415 3.507 0 0 0-2.433-1.03zm1.62 3.531a1.62 1.662 0 1 1-.472-1.176 1.608 1.65 0 0 1 .471 1.176z" id="path3782" stroke-width=".958"/>
    <path class="a" d="M34.892 22.741a3.436 3.528 0 1 0 2.432 1.03 3.413 3.505 0 0 0-2.432-1.03zm1.145 4.707a1.62 1.662 0 1 1 0-2.352 1.62 1.663 0 0 1 0 2.352z" id="path3784" stroke-width=".958"/>
</svg>
