<svg xmlns="http://www.w3.org/2000/svg" viewBox="0 0 58.00875 84"><title>hand</title><g id="Слой_2" data-name="Слой 2"><g id="Слой_1-2" data-name="Слой 1"><path d="M22.00272,0a18.03043,18.03043,0,0,0-18,18,19.64084,19.64084,0,0,0,3.375,11.15625,2.00348,2.00348,0,1,0,3.25081-2.34265l-.00081-.0011A16.46313,16.46313,0,0,1,8.00272,18a14,14,0,1,1,28,0,16.46313,16.46313,0,0,1-2.625,8.8125,2.00348,2.00348,0,1,0,3.25,2.34375A19.64084,19.64084,0,0,0,40.00272,18,18.03043,18.03043,0,0,0,22.00272,0Zm0,12a5.98728,5.98728,0,0,0-6,6V54l-4-8c-3.277-6.08081-6.49978-5.44873-9-4-2.89385,1.93018-3.97219,3.9231-2,9,4.5397,11.14789,11.5112,24.42944,19,33h27c9.48864-7.03052,17.12371-40.46338,4-42-1.20362,0-3.13086.193-4,1a4.88684,4.88684,0,0,0-5-5c-1.73171.029-3.0004,1-4,3a4.78819,4.78819,0,0,0-5-5,5.82368,5.82368,0,0,0-5,3V18A5.98728,5.98728,0,0,0,22.00272,12Z"/></g></g></svg>