<svg xmlns="http://www.w3.org/2000/svg" viewBox="0 0 58.009 84">
    <g data-name="Слой 2">
        <path d="M22.003 0a18.03 18.03 0 0 0-18 18 19.64 19.64 0 0 0 3.375 11.156 2.003 2.003 0 1 0 3.25-2.342v-.001A16.463 16.463 0 0 1 8.003 18a14 14 0 1 1 28 0 16.463 16.463 0 0 1-2.625 8.813 2.003 2.003 0 1 0 3.25 2.343A19.64 19.64 0 0 0 40.003 18a18.03 18.03 0 0 0-18-18zm0 12a5.987 5.987 0 0 0-6 6v36l-4-8c-3.277-6.08-6.5-5.449-9-4-2.894 1.93-3.972 3.923-2 9 4.54 11.148 11.51 24.43 19 33h27c9.488-7.03 17.123-40.463 4-42-1.204 0-3.131.193-4 1a4.887 4.887 0 0 0-5-5c-1.732.029-3 1-4 3a4.788 4.788 0 0 0-5-5 5.824 5.824 0 0 0-5 3V18a5.987 5.987 0 0 0-6-6z" data-name="Слой 1"/>
    </g>
</svg>
