<svg xmlns="http://www.w3.org/2000/svg" viewBox="0 0 32 32">
  <title>insta</title>
  <g id="Слой_2" data-name="Слой 2">
    <g id="Logo">
      <g>
        <circle cx="16" cy="16" r="16" fill="#f63440"/>
        
        <g>
          <path d="M16,8.64724c2.39476,0,2.67841.00913,3.62414.05228a4.96262,4.96262,0,0,1,1.66537.30882,2.97015,2.97015,0,0,1,1.70215,1.70215,4.96261,4.96261,0,0,1,.30882,1.66536c.04315.94574.05228,1.22939.05228,3.62415s-.00913,2.67841-.05228,3.62414a4.96262,4.96262,0,0,1-.30882,1.66537,2.97015,2.97015,0,0,1-1.70215,1.70215,4.96262,4.96262,0,0,1-1.66537.30882c-.94559.04315-1.22921.05228-3.62414.05228s-2.67855-.00913-3.62414-.05228a4.96262,4.96262,0,0,1-1.66537-.30882,2.97015,2.97015,0,0,1-1.70215-1.70215,4.96261,4.96261,0,0,1-.30882-1.66536C8.65637,18.67841,8.64724,18.39476,8.64724,16s.00913-2.67841.05228-3.62414a4.96262,4.96262,0,0,1,.30882-1.66537,2.97015,2.97015,0,0,1,1.70215-1.70215,4.96261,4.96261,0,0,1,1.66536-.30882c.94574-.04315,1.22939-.05228,3.62415-.05228m0-1.616c-2.43577,0-2.74119.01032-3.6978.054a6.58276,6.58276,0,0,0-2.17708.41689,4.586,4.586,0,0,0-2.623,2.623,6.58276,6.58276,0,0,0-.41689,2.17708c-.04364.95661-.054,1.262-.054,3.6978s.01032,2.74119.054,3.6978a6.58276,6.58276,0,0,0,.41689,2.17708,4.586,4.586,0,0,0,2.623,2.623,6.58276,6.58276,0,0,0,2.17708.41689c.95661.04365,1.262.054,3.6978.054s2.74119-.01031,3.6978-.054a6.58276,6.58276,0,0,0,2.17708-.41689,4.58611,4.58611,0,0,0,2.623-2.623,6.58276,6.58276,0,0,0,.41689-2.17708c.04364-.95661.054-1.262.054-3.6978s-.01032-2.74119-.054-3.6978a6.58276,6.58276,0,0,0-.41689-2.17708,4.586,4.586,0,0,0-2.623-2.623,6.58276,6.58276,0,0,0-2.17708-.41689c-.95661-.04364-1.262-.054-3.6978-.054Z" fill="#fff"/>
          <path d="M16,11.39443A4.60557,4.60557,0,1,0,20.60557,16,4.60556,4.60556,0,0,0,16,11.39443Zm0,7.59515A2.98958,2.98958,0,1,1,18.98958,16,2.98958,2.98958,0,0,1,16,18.98958Z" fill="#fff"/>
          <circle cx="20.78754" cy="11.21246" r="1.07625" fill="#fff"/>
        </g>
      </g>
    </g>
  </g>
</svg>
