<svg xmlns="http://www.w3.org/2000/svg" viewBox="0 0 58.3 51.7">
    <path d="M49.9 51.7c.5 0 .9-.4.9-.9V3.4h-6c-2 0-3.7 1.6-3.7 3.7v4.2h-6V3.4h-6c-2 0-3.7 1.6-3.7 3.7V12L3.6 50.3c-.2.3-.2.6 0 .9.2.3.5.4.8.4h15.7c.3 0 .6-.2.8-.5l12.4-21.8v21.4c0 .5.4.9.9.9s.9-.4.9-.9v-3.9H49v3.9c0 .6.4 1 .9 1zm-7-44.6c0-1 .8-1.9 1.9-1.9H49v6.1h-6.1V7.1zm-15.7 0c0-1 .8-1.9 1.9-1.9h4.2v6.1h-6.1V7.1zm-7.6 42.8H6l20.9-36.8h13.7l-21 36.8zM49 45H35.1v-6.6H49V45zm0-8.4H35.1V30H49v6.6zm0-8.4H35.1v-1.9l2.7-4.7H49v6.6zm0-8.4H38.8l3.8-6.6H49v6.6z" fill="#191919"/>
</svg>
