<?xml version="1.0" encoding="utf-8"?>
<!-- Generator: Adobe Illustrator 22.1.0, SVG Export Plug-In . SVG Version: 6.00 Build 0)  -->
<svg version="1.1" id="Слой_1" xmlns="http://www.w3.org/2000/svg" xmlns:xlink="http://www.w3.org/1999/xlink" x="0px" y="0px"
	 viewBox="0 0 58.3 51.7" style="enable-background:new 0 0 58.3 51.7;" xml:space="preserve">
<style type="text/css">
	.st0{fill:#191919;}
</style>
<path class="st0" d="M49.9,51.7c0.5,0,0.9-0.4,0.9-0.9V7.1V3.4h-6c-2,0-3.7,1.6-3.7,3.7v4.2h-6V3.4h-6c-2,0-3.7,1.6-3.7,3.7V12
	L3.6,50.3c-0.2,0.3-0.2,0.6,0,0.9c0.2,0.3,0.5,0.4,0.8,0.4h15.7c0.3,0,0.6-0.2,0.8-0.5l12.4-21.8v21.4c0,0.5,0.4,0.9,0.9,0.9
	c0.5,0,0.9-0.4,0.9-0.9v-3.9H49v3.9C49,51.3,49.4,51.7,49.9,51.7z M42.9,7.1c0-1,0.8-1.9,1.9-1.9H49v6.1h-6.1V7.1z M27.2,7.1
	c0-1,0.8-1.9,1.9-1.9h4.2v6.1h-6.1V7.1z M19.6,49.9H6l20.9-36.8h13.7L19.6,49.9z M49,45H35.1v-6.6H49V45z M49,36.6H35.1V30H49V36.6z
	 M49,28.2H35.1v-1.9l2.7-4.7H49V28.2z M49,19.8H38.8l3.8-6.6H49V19.8z"/>
</svg>
