<?xml version="1.0" encoding="utf-8"?>
<!-- Generator: Adobe Illustrator 22.1.0, SVG Export Plug-In . SVG Version: 6.00 Build 0)  -->
<svg version="1.1" id="Слой_1" xmlns="http://www.w3.org/2000/svg" xmlns:xlink="http://www.w3.org/1999/xlink" x="0px" y="0px"
	 viewBox="0 0 136 56" style="enable-background:new 0 0 136 56;" xml:space="preserve">
<style type="text/css">
	.st0{fill:#ffffff;}
</style>
<path class="st0" d="M122.3376236,6.8751431l-3.1991196,18.19911h6.3977356L122.3376236,6.8751431z M127.588089,36.4877777
	l-1.1467133-6.5292816h-8.147522l-1.146759,6.5292816h-6.0961761L117.8107224,0.5h9.7174072l6.7593002,35.9877777H127.588089z
	 M101.69664,36.4877777V10.6794577l-4.5868835,25.8083191h-6.2772446l-4.9489517-25.4483414v25.4483414h-5.7940979V0.5h9.2342987
	l4.8889618,25.5515327L98.7391129,0.5h9.2342606v35.9877777H101.69664z M65.6884537,5.6410327v30.8467445h-6.6387711V0.5h17.5028839
	v5.1410327H65.6884537z M43.9607277,6.8751431l-3.1991425,18.19911h6.3977547L43.9607277,6.8751431z M49.2112389,36.4877777
	l-1.1467171-6.5292816h-8.1475639l-1.1467171,6.5292816h-6.0956879L39.4338455,0.5h9.7174034l6.7592926,35.9877777H49.2112389z
	 M23.3197727,36.4877777V10.6794577l-4.586895,25.8083191H12.455658L7.5066848,11.0394373v25.4483414H1.7125738V0.5h9.2342758
	l4.8889589,25.5515327L20.3621597,0.5h9.2343102v35.9877777H23.3197727z"/>
<path class="st0" d="M105.8076096,55.4863129v-7.7402191l-1.0562057,3.2517548l-1.4314575,4.4884644h-1.1251144v-9.7273865h0.958847
	v7.2539597l0.861496-2.6823387l1.5561447-4.5716209h1.2088165v9.7273865H105.8076096z M99.9582214,55.4863129v-8.7406387h-1.8624573
	l-0.2220917,6.3224754C97.817894,54.6106148,97.4011002,55.4863129,95.9144135,55.5h-0.1810226v-0.9862251
	c0.9035873,0,1.0561981-0.458889,1.0840836-1.3898506l0.2641983-7.3650055h3.9601288v9.7273941H99.9582214z M95.0255585,54.4995804
	v0.9867325h-4.0021973v-9.7273865h4.0021973v0.9867477h-2.9181137v3.3212128h2.3760605v0.9725304H92.10746v3.4601631H95.0255585z
	 M86.535408,54.4995804h1.1951447c0.7920303,0,1.1535416-0.4031181,1.1535416-1.3061905v-1.2088051
	c0-0.9451675-0.4167862-1.2367058-1.2088165-1.2367058h-1.1398621L86.535408,54.4995804z M87.6752777,49.7748184
	c1.5145874,0,2.2929153,0.7225571,2.2929153,2.2792358v1.0698776c0,1.5145721-0.7088699,2.362381-2.237648,2.362381h-2.2650146
	v-9.7273865h4.0995483v0.9867477h-3.0296631v3.0291443H87.6752777z M84.4519424,54.4995804v0.9867325h-4.0021896v-9.7273865
	h4.0021896v0.9867477H81.533844v3.3212128h2.3760452v0.9725304H81.533844v3.4601631H84.4519424z M78.3104858,55.4863129V47.662941
	l-1.5424652,7.8096886h-1.0425034l-1.6119461-7.7402191v7.7539024h-0.9446335v-9.7273865h1.5145798l1.5982361,7.7681236
	l1.5424728-7.7681236h1.5145721v9.7273865H78.3104858z M67.4721756,46.9819603L66.402298,52.596096h2.1676712L67.4721756,46.9819603
	z M69.0977936,55.4863129L68.7225647,53.52705h-2.4592056l-0.3752518,1.9592628h-1.0009308l1.8624496-9.7273865h1.5703583
	l1.8619003,9.7273865H69.0977936z M64.331955,55.4863129h-1.1114616l-2.0845146-4.2242966l-0.5699425,0.9588547v3.2654419
	h-1.0835686v-9.7273865h1.0835686v4.6968727l2.5849915-4.6968727h1.0977974l-2.4597588,4.4326935L64.331955,55.4863129z
	 M57.4121704,55.4863129v-7.7402191l-1.0562057,3.2517548l-1.4309082,4.4884644h-1.1256676v-9.7273865h0.9588547v7.2539597
	l0.8614883-2.6823387l1.5561485-4.5716209h1.2093468v9.7273865H57.4121704z M51.8822403,48.079731
	c0-0.8893738-0.3194389-1.3340569-1.111454-1.3340569h-1.0425301v3.9327354h0.9588394
	c0.806221,0,1.1951294-0.3752251,1.1951294-1.3066978L51.8822403,48.079731z M50.6871109,51.6509171h-0.9588547v3.8353958
	h-1.0835648v-9.7273865h2.1260948c1.5282478,0,2.1813393,0.9030724,2.1813393,2.3760681v1.1672478
	c-0.0000038,1.5424652-0.7225723,2.3486862-2.2650299,2.3486862L50.6871109,51.6509171z M44.1567459,54.4995689h1.1951332
	c0.7920265,0,1.1530418-0.4031181,1.1530418-1.3061867v-1.2088089c0-0.9451675-0.4168015-1.2367058-1.2088165-1.2367058h-1.1393661
	L44.1567459,54.4995689z M45.2961044,49.774807c1.5145721,0,2.2929039,0.7225571,2.2929039,2.2792358v1.0698814
	c0,1.5145721-0.7088623,2.362381-2.2371292,2.362381h-2.2650337v-9.7273788h4.0990448v0.9867477h-3.0291519v3.0291443
	L45.2961044,49.774807z M39.5156593,46.9819489l-1.0698929,5.6141472H40.61343L39.5156593,46.9819489z M41.1417999,55.4863052
	L40.7665825,53.52705h-2.4597473l-0.3752251,1.9592628h-1.0004234l1.8619156-9.7273865h1.5703506l1.8624344,9.7273865
	L41.1417999,55.4863052z M35.0977058,49.2606468c0-0.930954-0.3610191-1.4035263-1.1951218-1.4035263h-0.6810303v5.6141357
	h0.6810303c0.8199081,0,1.1951218-0.4862709,1.1951218-1.4172134V49.2606468z M32.1516762,47.857132h-0.6809807
	c-0.8199177,0-1.1809349,0.4725723-1.1809349,1.4035225v2.7933998c0,0.9309425,0.361021,1.4172134,1.1809349,1.4172134h0.6809807
	V47.857132z M33.9025764,54.4164238h-0.6810303v1.0698891h-1.06987v-1.0698891h-0.6809807
	c-1.55616,0-2.2508183-0.8893738-2.2508183-2.431839v-2.6544724c0-1.5424614,0.6946659-2.4318352,2.2508183-2.4318352h0.6809807
	v-1.1393585h1.0698776v1.1393585h0.6810303c1.5566711,0,2.251339,0.8893738,2.251339,2.4318352v2.6544724
	c-0.0000153,1.5424652-0.6946793,2.431839-2.2513504,2.431839H33.9025764z"/>
</svg>
