<svg id="Слой_1" xmlns="http://www.w3.org/2000/svg" viewBox="0 0 136 56">
    <style>
        .st0{fill:#1d1d1b}
    </style>
    <path class="st0" d="M122.338 6.875l-3.2 18.2h6.398l-3.198-18.2zm5.25 29.613l-1.147-6.53h-8.147l-1.147 6.53h-6.096L117.81.5h9.717l6.76 35.988h-6.7zm-25.891 0V10.679L97.11 36.488h-6.277l-4.95-25.449v25.449H80.09V.5h9.235l4.889 25.552L98.739.5h9.234v35.988h-6.276zM65.688 5.64v30.847H59.05V.5h17.503v5.141H65.688zM43.961 6.875l-3.2 18.2h6.398l-3.198-18.2zm5.25 29.613l-1.146-6.53h-8.148l-1.147 6.53h-6.095L39.434.5h9.717l6.76 35.988h-6.7zm-25.891 0V10.679l-4.587 25.809h-6.277l-4.95-25.449v25.449H1.714V.5h9.234l4.889 25.552L20.362.5h9.234v35.988H23.32zM105.808 55.486v-7.74l-1.057 3.252-1.431 4.488h-1.125V45.76h.959v7.254l.861-2.682 1.556-4.572h1.21v9.727h-.973zm-5.85 0v-8.74h-1.862l-.222 6.322c-.056 1.543-.473 2.418-1.96 2.432h-.18v-.986c.903 0 1.056-.46 1.083-1.39l.265-7.365h3.96v9.727h-1.084zm-4.932-.986v.986h-4.003V45.76h4.003v.987h-2.919v3.32h2.377v.973h-2.377v3.46h2.919zm-8.49 0h1.195c.792 0 1.153-.404 1.153-1.307v-1.208c0-.946-.417-1.237-1.209-1.237h-1.14V54.5zm1.14-4.725c1.514 0 2.292.722 2.292 2.28v1.069c0 1.515-.709 2.362-2.237 2.362h-2.265V45.76h4.1v.987h-3.03v3.029h1.14zM84.451 54.5v.986H80.45V45.76h4.002v.987h-2.918v3.32h2.376v.973h-2.376v3.46h2.918zm-6.142.986v-7.823l-1.542 7.81h-1.042l-1.612-7.74v7.753h-.945V45.76h1.515l1.598 7.768 1.542-7.768h1.515v9.727H78.31zm-10.838-8.504l-1.07 5.614h2.168l-1.098-5.614zm1.626 8.504l-.375-1.959h-2.46l-.375 1.96h-1l1.862-9.728h1.57l1.862 9.727h-1.084zm-4.766 0H63.22l-2.084-4.224-.57.959v3.265h-1.084V45.76h1.084v4.697l2.585-4.697h1.098l-2.46 4.433 2.543 5.294zm-6.92 0v-7.74l-1.056 3.252-1.43 4.488h-1.127V45.76h.96v7.254l.86-2.682 1.557-4.572h1.21v9.727h-.974zm-5.53-7.406c0-.89-.32-1.334-1.111-1.334h-1.043v3.932h.96c.805 0 1.194-.375 1.194-1.306V48.08zm-1.195 3.57h-.959v3.836h-1.083V45.76h2.126c1.528 0 2.181.903 2.181 2.376v1.167c0 1.543-.722 2.349-2.265 2.349zm-6.53 2.85h1.195c.792 0 1.153-.404 1.153-1.307v-1.208c0-.946-.417-1.237-1.209-1.237h-1.14V54.5zm1.14-4.725c1.514 0 2.292.722 2.292 2.279v1.07c0 1.514-.709 2.362-2.237 2.362h-2.265V45.76h4.099v.987h-3.03v3.029h1.14zm-5.781-2.793l-1.07 5.614h2.167l-1.097-5.614zm1.626 8.504l-.375-1.959h-2.46l-.375 1.96h-1l1.861-9.728h1.57l1.863 9.727h-1.084zm-6.044-6.225c0-.931-.361-1.404-1.195-1.404h-.681v5.614h.68c.82 0 1.196-.486 1.196-1.417v-2.793zm-2.946-1.404h-.681c-.82 0-1.181.473-1.181 1.404v2.793c0 .931.36 1.417 1.18 1.417h.682v-5.614zm1.75 6.56h-.68v1.07h-1.07v-1.07h-.681c-1.556 0-2.251-.89-2.251-2.432V49.33c0-1.542.695-2.432 2.25-2.432h.682v-1.14h1.07v1.14h.68c1.557 0 2.252.89 2.252 2.432v2.655c0 1.542-.695 2.431-2.251 2.431z"/>
</svg>
