<svg xmlns="http://www.w3.org/2000/svg" viewBox="0 0 62 54">
    <path d="M57 5H5c-2.8 0-5 2.2-5 5v34c0 2.8 2.2 5 5 5h52c2.8 0 5-2.2 5-5V10c0-2.8-2.2-5-5-5zm0 2c.5 0 1 .1 1.4.4l-25 21.8c-1.3 1.1-3.4 1.1-4.7 0L3.6 7.3C4 7.1 4.5 7 5 7h52zm3 37c0 1.7-1.3 3-3 3H5c-1.7 0-3-1.3-3-3V10c0-.4.1-.8.2-1.2l20.3 17.7-11.4 10.8c-.4.4-.4 1 0 1.4.2.2.5.3.7.3.2 0 .5-.1.7-.3L24 27.9s0-.1.1-.1l3.3 2.9c1 .9 2.3 1.3 3.7 1.3 1.3 0 2.7-.4 3.7-1.3l3.3-2.9s0 .1.1.1l11.5 10.8c.2.2.4.3.7.3.3 0 .5-.1.7-.3.4-.4.4-1 0-1.4L39.4 26.5 59.8 8.8c.1.4.2.8.2 1.2v34z" fill="#f63440"/>
</svg>
