<svg xmlns="http://www.w3.org/2000/svg" viewBox="0 0 36.321 36.321">
    <path d="M31.167 8.137H5.155a2.503 2.503 0 0 0-2.5 2.5v17.047c0 1.379 1.122 2.5 2.5 2.5h26.012c1.378 0 2.5-1.121 2.5-2.5V10.637c0-1.38-1.122-2.5-2.5-2.5zm0 1c.258 0 .497.071.71.186L19.338 20.256c-.638.557-1.718.557-2.357 0L4.447 9.322a1.48 1.48 0 0 1 .708-.185h26.012zm1.5 18.547c0 .827-.673 1.5-1.5 1.5H5.155c-.827 0-1.5-.673-1.5-1.5V10.637c0-.205.041-.4.116-.578l10.17 8.871-5.727 5.37a.5.5 0 1 0 .685.729l5.756-5.398c.014-.014.02-.033.033-.048l1.637 1.428c.506.44 1.17.662 1.836.662.665 0 1.329-.221 1.836-.663l1.636-1.427c.013.015.02.034.035.048l5.754 5.398a.499.499 0 0 0 .685-.728l-5.725-5.371 10.17-8.868c.073.178.115.371.115.575v17.047z" fill="#f63440"/>
</svg>
