<?xml version="1.0" encoding="utf-8"?>
<!-- Generator: Adobe Illustrator 22.1.0, SVG Export Plug-In . SVG Version: 6.00 Build 0)  -->
<svg version="1.1" id="Capa_1" xmlns="http://www.w3.org/2000/svg" xmlns:xlink="http://www.w3.org/1999/xlink" x="0px" y="0px"
	 viewBox="0 0 36.32133 36.32133" style="enable-background:new 0 0 36.32133 36.32133;" xml:space="preserve">
<style type="text/css">
	.st0{fill:#F63440;}
</style>
<path class="st0" d="M31.16669,8.13664H5.15467c-1.37799,0-2.5,1.12103-2.5,2.5v17.04706c0,1.37897,1.12201,2.5,2.5,2.5h26.01202
	c1.37799,0,2.5-1.12103,2.5-2.5V10.63664C33.66669,9.25767,32.54468,8.13664,31.16669,8.13664z M31.16669,9.13664
	c0.258,0,0.49725,0.07153,0.70953,0.18677L19.33869,20.25566c-0.638,0.55701-1.71802,0.55701-2.35699,0L4.44727,9.32218
	c0.21173-0.1145,0.45026-0.18555,0.7074-0.18555H31.16669z M32.66669,27.68369c0,0.82697-0.67303,1.5-1.5,1.5H5.15467
	c-0.82703,0-1.5-0.67303-1.5-1.5V10.63664c0-0.20453,0.04181-0.39941,0.11627-0.57727l10.16913,8.87109l-5.72638,5.37018
	c-0.20105,0.18805-0.211,0.505-0.02203,0.70605c0.099,0.10498,0.23199,0.15796,0.36499,0.15796
	c0.12305,0,0.24603-0.04498,0.34204-0.13599l5.75598-5.39801c0.01477-0.01379,0.021-0.03235,0.03369-0.04742l1.63629,1.42743
	c0.50604,0.44098,1.17102,0.66199,1.836,0.66199c0.66504,0,1.32904-0.22101,1.836-0.66296l1.63678-1.42719
	c0.01288,0.01538,0.01923,0.03412,0.03424,0.04816l5.75403,5.39801c0.09595,0.091,0.21899,0.13599,0.34198,0.13599
	c0.13397,0,0.26599-0.05298,0.36499-0.15796c0.18903-0.20105,0.17902-0.51801-0.02197-0.70605l-5.72491-5.37067l10.16962-8.86749
	c0.07373,0.17706,0.1153,0.37073,0.1153,0.57416V27.68369z"/>
</svg>
