<?xml version="1.0" encoding="utf-8"?>
<!-- Generator: Adobe Illustrator 22.1.0, SVG Export Plug-In . SVG Version: 6.00 Build 0)  -->
<svg version="1.1" id="Capa_1" xmlns="http://www.w3.org/2000/svg" xmlns:xlink="http://www.w3.org/1999/xlink" x="0px" y="0px"
	 viewBox="0 0 62 54" style="enable-background:new 0 0 62 54;" xml:space="preserve">
<style type="text/css">
	.st0{fill:#F63440;}
</style>
<path class="st0" d="M57,5H5c-2.8,0-5,2.2-5,5V44c0,2.8,2.2,5,5,5h52c2.8,0,5-2.2,5-5V10C62,7.2,59.8,5,57,5z M57,7
	c0.5,0,1,0.1,1.4,0.4L33.4,29.2c-1.3,1.1-3.4,1.1-4.7,0L3.6,7.3C4,7.1,4.5,7,5,7H57z M60,44c0,1.7-1.3,3-3,3H5c-1.7,0-3-1.3-3-3V10
	c0-0.4,0.1-0.8,0.2-1.2l20.3,17.7L11.1,37.3c-0.4,0.4-0.4,1,0,1.4c0.2,0.2,0.5,0.3,0.7,0.3c0.2,0,0.5-0.1,0.7-0.3L24,27.9
	c0,0,0-0.1,0.1-0.1l3.3,2.9c1,0.9,2.3,1.3,3.7,1.3c1.3,0,2.7-0.4,3.7-1.3l3.3-2.9c0,0,0,0.1,0.1,0.1l11.5,10.8
	c0.2,0.2,0.4,0.3,0.7,0.3c0.3,0,0.5-0.1,0.7-0.3c0.4-0.4,0.4-1,0-1.4L39.4,26.5L59.8,8.8C59.9,9.2,60,9.6,60,10V44z"/>
</svg>
