<?xml version="1.0" encoding="UTF-8" standalone="no"?>
<svg
   xmlns:dc="http://purl.org/dc/elements/1.1/"
   xmlns:cc="http://creativecommons.org/ns#"
   xmlns:rdf="http://www.w3.org/1999/02/22-rdf-syntax-ns#"
   xmlns:svg="http://www.w3.org/2000/svg"
   xmlns="http://www.w3.org/2000/svg"
   xmlns:sodipodi="http://sodipodi.sourceforge.net/DTD/sodipodi-0.dtd"
   xmlns:inkscape="http://www.inkscape.org/namespaces/inkscape"
   viewBox="0 0 22.977102 28.882712"
   version="1.1"
   id="svg28"
   sodipodi:docname="marker.svg"
   width="22.977102"
   height="28.882711"
   inkscape:version="0.92.2 (5c3e80d, 2017-08-06)">
  <metadata
     id="metadata32">
    <rdf:RDF>
      <cc:Work
         rdf:about="">
        <dc:format>image/svg+xml</dc:format>
        <dc:type
           rdf:resource="http://purl.org/dc/dcmitype/StillImage" />
      </cc:Work>
    </rdf:RDF>
  </metadata>
  <sodipodi:namedview
     pagecolor="#ffffff"
     bordercolor="#666666"
     borderopacity="1"
     objecttolerance="10"
     gridtolerance="10"
     guidetolerance="10"
     inkscape:pageopacity="0"
     inkscape:pageshadow="2"
     inkscape:window-width="1920"
     inkscape:window-height="1017"
     id="namedview30"
     showgrid="false"
     inkscape:zoom="9.6577738"
     inkscape:cx="18.462866"
     inkscape:cy="25.663348"
     inkscape:window-x="-8"
     inkscape:window-y="-8"
     inkscape:window-maximized="1"
     inkscape:current-layer="svg28" />
  <defs
     id="defs24">
    <style
       id="style22">.a{fill:#f63440;}</style>
  </defs>
  <path
     class="a"
     d="m 11.584015,28.882712 h -0.07376 A 2.3307115,2.1780158 0 0 1 9.9992993,28.160646 68.41179,63.929817 0 0 1 3.4356567,20.12273 27.496495,25.695072 0 0 1 0.9771012,15.493627 14.913603,13.936544 0 0 1 0,10.760809 11.547488,10.790959 0 0 1 11.546786,4.4899745e-5 11.32692,10.584841 0 0 1 19.6249,3.1338145 a 11.48497,10.732537 0 0 1 3.352066,7.6302765 15.158054,14.16498 0 0 1 -0.958135,4.732818 27.507031,25.704918 0 0 1 -2.420624,4.629103 66.048765,61.721605 0 0 1 -6.503936,8.037916 2.3180675,2.1662001 0 0 1 -1.510256,0.718784 z M 11.443526,5.9781006 a 5.1348705,4.7984615 0 1 0 5.141895,4.7984614 5.1440023,4.806995 0 0 0 -5.139787,-4.7964908 z"
     id="path26"
     inkscape:connector-curvature="0"
     style="fill:#f63440;stroke-width:0.67904472" />
</svg>
