<svg xmlns="http://www.w3.org/2000/svg" width="22.977" height="28.883">
    <path d="M11.584 28.883h-.074A2.33 2.178 0 0 1 10 28.16a68.412 63.93 0 0 1-6.564-8.038 27.496 25.695 0 0 1-2.459-4.63A14.914 13.937 0 0 1 0 10.762 11.547 10.791 0 0 1 11.547 0a11.327 10.585 0 0 1 8.078 3.134 11.485 10.733 0 0 1 3.352 7.63 15.158 14.165 0 0 1-.958 4.733 27.507 25.705 0 0 1-2.42 4.629 66.049 61.722 0 0 1-6.505 8.038 2.318 2.166 0 0 1-1.51.719zm-.14-22.905a5.135 4.798 0 1 0 5.141 4.799 5.144 4.807 0 0 0-5.14-4.797z" fill="#f63440" stroke-width=".679"/>
</svg>
