<?xml version="1.0" encoding="utf-8"?>
<!-- Generator: Adobe Illustrator 22.1.0, SVG Export Plug-In . SVG Version: 6.00 Build 0)  -->
<svg version="1.1" id="Слой_1" xmlns="http://www.w3.org/2000/svg" xmlns:xlink="http://www.w3.org/1999/xlink" x="0px" y="0px"
	 viewBox="0 0 58.3 51.7" style="enable-background:new 0 0 58.3 51.7;" xml:space="preserve">
<style type="text/css">
	.st0{fill:#191919;}
</style>
<g>
	<path class="st0" d="M18.7,37.6c0.5,0,0.9-0.4,0.9-0.9l0,0v-1.6c0-0.5-0.4-0.9-0.9-0.9c-0.5,0-0.9,0.4-0.9,0.9v1.6
		C17.8,37.2,18.2,37.6,18.7,37.6z"/>
	<path class="st0" d="M34.6,16.8H23.8c-0.5,0-0.9,0.4-0.9,0.9c0,0.5,0.4,0.9,0.9,0.9l0,0h10.8c0.5,0,0.9-0.4,0.9-0.9
		C35.4,17.1,35,16.8,34.6,16.8z"/>
	<path class="st0" d="M12.5,11.2v38.5h5.3v1.1c0,0.4,0.3,0.8,0.8,0.9c0,0,0.1,0,0.1,0c0.5,0,0.9-0.4,0.9-0.9v-1.1h19.3v1.1
		c0,0.5,0.4,0.9,0.9,0.9s0.9-0.4,0.9-0.9l0,0v-1.1h5.3V11.2H12.5z M44.1,48H14.2V24h29.9V48z M14.2,22.3v-9.4h29.9v9.4L14.2,22.3z"
		/>
</g>
</svg>
