<svg id="Слой_1" xmlns="http://www.w3.org/2000/svg" viewBox="0 0 58.3 51.7">
    <style>
        .st0{fill:#191919}
    </style>
    <path class="st0" d="M18.7 37.6c.5 0 .9-.4.9-.9v-1.6c0-.5-.4-.9-.9-.9s-.9.4-.9.9v1.6c0 .5.4.9.9.9zM34.6 16.8H23.8c-.5 0-.9.4-.9.9s.4.9.9.9h10.8c.5 0 .9-.4.9-.9-.1-.6-.5-.9-.9-.9z"/>
    <path class="st0" d="M12.5 11.2v38.5h5.3v1.1c0 .4.3.8.8.9h.1c.5 0 .9-.4.9-.9v-1.1h19.3v1.1c0 .5.4.9.9.9s.9-.4.9-.9v-1.1H46V11.2H12.5zM44.1 48H14.2V24h29.9v24zM14.2 22.3v-9.4h29.9v9.4H14.2z"/>
</svg>
