<?xml version="1.0" encoding="utf-8"?>
<!-- Generator: Adobe Illustrator 22.1.0, SVG Export Plug-In . SVG Version: 6.00 Build 0)  -->
<svg version="1.1" id="Слой_1" xmlns="http://www.w3.org/2000/svg" xmlns:xlink="http://www.w3.org/1999/xlink" x="0px" y="0px"
	 viewBox="0 0 58.3 51.7" style="enable-background:new 0 0 58.3 51.7;" xml:space="preserve">
<style type="text/css">
	.st0{fill:#191919;}
</style>
<g>
	<path class="st0" d="M54.3,22.2H19.7c-0.8-1.6-2.3-2.8-4.1-3.2v-7.9c1.4-0.4,2.3-1.9,1.9-3.4l7.8-4.6l0.4,1.1
		c-2.6,1.3-3.9,4.4-3,7.2c0.1,0.5,0.6,0.7,1.1,0.6c0,0,0,0,0,0l0,0l9.7-3.2l0,0c0.5-0.1,0.7-0.6,0.6-1.1c0,0,0,0,0-0.1
		c-0.9-2.8-3.8-4.4-6.7-3.9l-1.2-3.2c-0.2-0.4-0.7-0.7-1.1-0.5c-0.4,0.2-0.7,0.7-0.5,1.1l0,0l0.1,0.4l-8,4.7
		c-0.7-0.6-1.6-0.9-2.5-0.7c-1.6,0.3-2.6,1.8-2.3,3.4c0.2,1,1,1.9,2,2.2V19c-1.8,0.4-3.3,1.6-4.1,3.2H4c-0.5,0-0.9,0.4-0.9,0.9
		C3.2,23.6,3.6,24,4,24h2v26.8c0,0.5,0.4,0.9,0.9,0.9c0.5,0,0.9-0.4,0.9-0.9c0,0,0,0,0,0V43h14.6V28.4H36V43h14.6v7.8
		c0,0.5,0.4,0.9,0.9,0.9l0,0c0.5,0,0.9-0.4,0.9-0.9v-8.7V24h2c0.5,0,0.9-0.4,0.9-0.9C55.2,22.6,54.8,22.2,54.3,22.2L54.3,22.2z
		 M27.1,5.7c1.9-0.6,4,0.2,5,1.9l-7.8,2.6C24,8.2,25.2,6.3,27.1,5.7z M13.6,8.4c0-0.6,0.5-1.2,1.2-1.2c0.6,0,1.2,0.5,1.2,1.2
		c0,0.6-0.5,1.2-1.2,1.2h0C14.1,9.6,13.6,9.1,13.6,8.4z M14.7,20.7L14.7,20.7L14.7,20.7c1.2,0.1,2.2,0.6,2.9,1.5h-5.7
		C12.5,21.3,13.6,20.8,14.7,20.7z M20.6,41.2H7.8V28.4h12.8L20.6,41.2z M50.5,41.2H37.7v-5.6h12.8L50.5,41.2z M50.5,34H37.7v-5.6
		h12.8L50.5,34z M50.5,26.7H7.8V24h42.7L50.5,26.7z"/>
	<path class="st0" d="M18.2,36.5c0.5,0,0.9-0.4,0.9-0.9c0,0,0,0,0,0V34c0-0.5-0.4-0.9-0.9-0.9c-0.5,0-0.9,0.4-0.9,0.9c0,0,0,0,0,0
		v1.6C17.3,36.1,17.7,36.5,18.2,36.5C18.2,36.5,18.2,36.5,18.2,36.5z"/>
	<path class="st0" d="M43.3,32h1.6c0.5,0,0.9-0.4,0.9-0.9c0-0.5-0.4-0.9-0.9-0.9l0,0h-1.6c-0.5,0-0.9,0.4-0.9,0.9
		C42.5,31.7,42.9,32,43.3,32z"/>
	<path class="st0" d="M43.3,39.3h1.6c0.5,0,0.9-0.4,0.9-0.9c0-0.5-0.4-0.9-0.9-0.9h-1.6c-0.5,0-0.9,0.4-0.9,0.9S42.9,39.3,43.3,39.3
		C43.3,39.3,43.3,39.3,43.3,39.3z"/>
</g>
</svg>
