<svg id="Слой_1" xmlns="http://www.w3.org/2000/svg" viewBox="0 0 58.3 51.7">
    <style>
        .st0{fill:#191919}
    </style>
    <path class="st0" d="M54.3 22.2H19.7c-.8-1.6-2.3-2.8-4.1-3.2v-7.9c1.4-.4 2.3-1.9 1.9-3.4l7.8-4.6.4 1.1c-2.6 1.3-3.9 4.4-3 7.2.1.5.6.7 1.1.6l9.7-3.2c.5-.1.7-.6.6-1.1v-.1c-.9-2.8-3.8-4.4-6.7-3.9L26.2.5c-.2-.4-.7-.7-1.1-.5-.4.2-.7.7-.5 1.1l.1.4-8 4.7c-.7-.6-1.6-.9-2.5-.7-1.6.3-2.6 1.8-2.3 3.4.2 1 1 1.9 2 2.2V19c-1.8.4-3.3 1.6-4.1 3.2H4c-.5 0-.9.4-.9.9.1.5.5.9.9.9h2v26.8c0 .5.4.9.9.9s.9-.4.9-.9V43h14.6V28.4H36V43h14.6v7.8c0 .5.4.9.9.9s.9-.4.9-.9V24h2c.5 0 .9-.4.9-.9-.1-.5-.5-.9-1-.9zM27.1 5.7c1.9-.6 4 .2 5 1.9l-7.8 2.6c-.3-2 .9-3.9 2.8-4.5zM13.6 8.4c0-.6.5-1.2 1.2-1.2.6 0 1.2.5 1.2 1.2 0 .6-.5 1.2-1.2 1.2s-1.2-.5-1.2-1.2zm1.1 12.3c1.2.1 2.2.6 2.9 1.5h-5.7c.6-.9 1.7-1.4 2.8-1.5zm5.9 20.5H7.8V28.4h12.8v12.8zm29.9 0H37.7v-5.6h12.8v5.6zm0-7.2H37.7v-5.6h12.8V34zm0-7.3H7.8V24h42.7v2.7z"/>
    <path class="st0" d="M18.2 36.5c.5 0 .9-.4.9-.9V34c0-.5-.4-.9-.9-.9s-.9.4-.9.9v1.6c0 .5.4.9.9.9zM43.3 32h1.6c.5 0 .9-.4.9-.9s-.4-.9-.9-.9h-1.6c-.5 0-.9.4-.9.9.1.6.5.9.9.9zM43.3 39.3h1.6c.5 0 .9-.4.9-.9s-.4-.9-.9-.9h-1.6c-.5 0-.9.4-.9.9s.5.9.9.9z"/>
</svg>
