<svg id="Capa_1" xmlns="http://www.w3.org/2000/svg" viewBox="0 0 62 54">
    <style>
        .st0{fill:#f63440}
    </style>
    <path class="st0" d="M50.1 47.8l.2-.1c.5-.5 1-.9 1.4-1.4 1-1 1.5-2.2 1.5-3.4 0-1.2-.5-2.4-1.5-3.4l-6-6c-1-1-2.1-1.5-3.3-1.5-1.2 0-2.4.5-3.4 1.5l-3.7 3.7-.9-.5s-.1 0-.1-.1c0 0-.1 0-.1-.1H34c-.4-.2-.7-.4-1-.5-3.3-2.1-6.2-4.8-9.1-8.3-1.4-1.8-2.3-3.2-3-4.7l-.1-.3.3-.2c.7-.6 1.3-1.2 1.9-1.8l1.5-1.6c2.1-2.1 2.1-4.7 0-6.8l-3-3-1-1-2-2c-1-1-2.1-1.5-3.3-1.5-1.2 0-2.4.5-3.4 1.5L8 9.9c-1.3 1.3-2 2.9-2.2 4.8-.3 3.1.7 5.9 1.4 7.9 1.8 4.7 4.4 9.1 8.3 13.7 4.7 5.6 10.4 10.1 16.9 13.2 4.7 2.2 7.5 2.7 9.4 2.8h.7c2.4 0 4.3-.8 5.9-2.5l.1-.1c.3-.7.9-1.2 1.6-1.9zm-3.3.6c-1.2 1.3-2.6 1.9-4.5 1.9h-.5c-3.3-.2-6.4-1.5-8.7-2.6-6.2-3-11.7-7.3-16.2-12.7-3.7-4.5-6.2-8.7-7.9-13.2-1-2.8-1.4-4.9-1.2-7 .1-1.4.7-2.6 1.6-3.5l3.7-3.7c1.3-1.2 2.7-1.2 4 0 .7.6 1.3 1.3 2 2l.3.3.2.2.5.5 3 3c1.3 1.4 1.3 2.7 0 4.1l-.2-.2.2.2-.9.9c-1 1-1.8 1.9-2.7 2.7-.7.7-.7 1.4-.5 2v.1c.7 1.8 1.8 3.5 3.4 5.6 3 3.7 6.1 6.5 9.6 8.7.4.3.9.5 1.3.7.4.2.8.4 1.1.6l-.1.2V39h.1c.8.4 1.6.2 2.1-.4l3.7-3.7c.6-.6 1.3-1 2-1 .9 0 1.6.6 1.9 1l6 6c1.3 1.3 1.3 2.8 0 4.1-.3.4-.7.7-1.1 1.1l-.3.3c-.4.5-1.2 1.3-1.9 2zM32.4 11.9c0 .3 0 .5.2.7.2.2.4.3.6.4 2.9.5 5.6 1.9 7.8 4 2.1 2.1 3.5 4.8 4 7.8.1.5.6.9 1.1.8h.1c.2 0 .5-.2.6-.4.2-.2.2-.5.2-.7-.6-3.4-2.1-6.4-4.6-8.8-2.4-2.4-5.5-4-8.8-4.6h-.2c-.5 0-.9.3-1 .8zM33.6 3.6c5.2.9 9.9 3.3 13.6 7.1 3.7 3.7 6.2 8.5 7.1 13.6.1.5.5.8.9.8h.2c.2 0 .5-.2.6-.4.1-.2.2-.5.2-.7-.9-5.6-3.6-10.7-7.6-14.7-4-4-9.1-6.7-14.7-7.6h-.2c-.2 0-.4.1-.5.2-.2.2-.4.4-.4.6-.1.6.3 1 .8 1.1z"/>
</svg>
