<?xml version="1.0" encoding="utf-8"?>
<!-- Generator: Adobe Illustrator 22.1.0, SVG Export Plug-In . SVG Version: 6.00 Build 0)  -->
<svg version="1.1" id="Capa_1" xmlns="http://www.w3.org/2000/svg" xmlns:xlink="http://www.w3.org/1999/xlink" x="0px" y="0px"
	 viewBox="0 0 62 54" style="enable-background:new 0 0 62 54;" xml:space="preserve">
<style type="text/css">
	.st0{fill:#F63440;}
</style>
<g>
	<path class="st0" d="M50.1,47.8l0.2-0.1c0.5-0.5,1-0.9,1.4-1.4c1-1,1.5-2.2,1.5-3.4c0-1.2-0.5-2.4-1.5-3.4l-6-6
		c-1-1-2.1-1.5-3.3-1.5c-1.2,0-2.4,0.5-3.4,1.5l-3.7,3.7l-0.9-0.5c0,0-0.1,0-0.1-0.1c0,0-0.1,0-0.1-0.1L34,36.5
		c-0.4-0.2-0.7-0.4-1-0.5c-3.3-2.1-6.2-4.8-9.1-8.3c-1.4-1.8-2.3-3.2-3-4.7l-0.1-0.3l0.3-0.2c0.7-0.6,1.3-1.2,1.9-1.8l1.5-1.6
		c2.1-2.1,2.1-4.7,0-6.8l-3-3c-0.3-0.3-0.7-0.7-1-1c-0.6-0.6-1.3-1.3-2-2c-1-1-2.1-1.5-3.3-1.5c-1.2,0-2.4,0.5-3.4,1.5L8,9.9
		c-1.3,1.3-2,2.9-2.2,4.8c-0.3,3.1,0.7,5.9,1.4,7.9c1.8,4.7,4.4,9.1,8.3,13.7c4.7,5.6,10.4,10.1,16.9,13.2c4.7,2.2,7.5,2.7,9.4,2.8
		l0.1,0c0.2,0,0.4,0,0.6,0c2.4,0,4.3-0.8,5.9-2.5l0.1-0.1C48.8,49,49.4,48.5,50.1,47.8z M46.8,48.4c-1.2,1.3-2.6,1.9-4.5,1.9
		c-0.2,0-0.4,0-0.5,0c-3.3-0.2-6.4-1.5-8.7-2.6c-6.2-3-11.7-7.3-16.2-12.7c-3.7-4.5-6.2-8.7-7.9-13.2c-1-2.8-1.4-4.9-1.2-7
		c0.1-1.4,0.7-2.6,1.6-3.5l3.7-3.7c1.3-1.2,2.7-1.2,4,0c0.7,0.6,1.3,1.3,2,2c0.1,0.1,0.2,0.2,0.3,0.3l0.2,0.2
		c0.2,0.2,0.4,0.4,0.5,0.5l3,3c1.3,1.4,1.3,2.7,0,4.1c0,0,0,0,0,0l-0.2-0.2l0,0l0.2,0.2l-0.9,0.9c-1,1-1.8,1.9-2.7,2.7
		c-0.7,0.7-0.7,1.4-0.5,2l0,0.1c0.7,1.8,1.8,3.5,3.4,5.6c3,3.7,6.1,6.5,9.6,8.7c0.4,0.3,0.9,0.5,1.3,0.7c0.4,0.2,0.8,0.4,1.1,0.6
		l-0.1,0.2l0,0l0,0l0-0.2l0.1,0c0.8,0.4,1.6,0.2,2.1-0.4l3.7-3.7c0.6-0.6,1.3-1,2-1c0.9,0,1.6,0.6,1.9,1l6,6c1.3,1.3,1.3,2.8,0,4.1
		c-0.3,0.4-0.7,0.7-1.1,1.1l-0.3,0.3C48.3,46.9,47.5,47.7,46.8,48.4z"/>
	<path class="st0" d="M32.4,11.9c0,0.3,0,0.5,0.2,0.7c0.2,0.2,0.4,0.3,0.6,0.4c2.9,0.5,5.6,1.9,7.8,4c2.1,2.1,3.5,4.8,4,7.8
		c0.1,0.5,0.6,0.9,1.1,0.8l0.1,0c0.2,0,0.5-0.2,0.6-0.4c0.2-0.2,0.2-0.5,0.2-0.7c-0.6-3.4-2.1-6.4-4.6-8.8c-2.4-2.4-5.5-4-8.8-4.6
		c-0.1,0-0.1,0-0.2,0C32.9,11.1,32.5,11.4,32.4,11.9z"/>
	<path class="st0" d="M33.6,3.6c5.2,0.9,9.9,3.3,13.6,7.1c3.7,3.7,6.2,8.5,7.1,13.6c0.1,0.5,0.5,0.8,0.9,0.8c0,0,0,0,0.1,0
		c0,0,0.1,0,0.1,0c0.2,0,0.5-0.2,0.6-0.4c0.1-0.2,0.2-0.5,0.2-0.7c-0.9-5.6-3.6-10.7-7.6-14.7l0,0c-4-4-9.1-6.7-14.7-7.6
		c-0.1,0-0.1,0-0.2,0c-0.2,0-0.4,0.1-0.5,0.2c-0.2,0.2-0.4,0.4-0.4,0.6C32.7,3.1,33.1,3.5,33.6,3.6z"/>
</g>
</svg>
