<?xml version="1.0" encoding="utf-8"?>
<!-- Generator: Adobe Illustrator 22.1.0, SVG Export Plug-In . SVG Version: 6.00 Build 0)  -->
<svg version="1.1" id="Capa_1" xmlns="http://www.w3.org/2000/svg" xmlns:xlink="http://www.w3.org/1999/xlink" x="0px" y="0px"
	 viewBox="0 0 36.32133 36.32133" style="enable-background:new 0 0 36.32133 36.32133;" xml:space="preserve">
<style type="text/css">
	.st0{fill:#F63440;}
</style>
<g>
	<g>
		<path class="st0" d="M4.35877,10.41197c-0.1377,1.68066,0.36035,3.26221,0.74707,4.30566
			c0.95703,2.58154,2.38965,4.97021,4.50977,7.51904c2.58594,3.08691,5.69434,5.52148,9.23926,7.23633
			c1.35547,0.6416,3.16699,1.39551,5.14355,1.52246c0.11719,0.00488,0.24414,0.01074,0.35938,0.01074
			c1.29102,0,2.37598-0.46094,3.22461-1.36914l0.04004-0.0459c0.29785-0.36133,0.63379-0.68555,0.98926-1.02832l0.07031-0.06836
			c0.25488-0.24316,0.51367-0.49609,0.7666-0.76074c0.54297-0.56543,0.8291-1.2168,0.8291-1.88574
			c0-0.67383-0.29102-1.31836-0.8418-1.86328l-3.27148-3.2832c-1.05859-1.10352-2.58496-1.10791-3.68848-0.00195l-2.0127,2.00488
			l-0.16309-0.08789c-0.11621-0.06152-0.23242-0.12207-0.34668-0.17969l-0.10742-0.05664
			c-0.23633-0.11816-0.43555-0.21777-0.60645-0.3252c-1.78613-1.13379-3.40723-2.61084-4.95898-4.51611
			c-0.75781-0.95801-1.2627-1.75586-1.63965-2.58935l-0.0752-0.16504l0.13379-0.12256
			c0.44727-0.40918,0.86719-0.83643,1.27344-1.24951l0.59863-0.60498c0.56543-0.56543,0.86426-1.21582,0.86426-1.88232
			c0-0.66602-0.29883-1.31641-0.86426-1.88184l-1.62402-1.62402c-0.18652-0.18652-0.37891-0.37891-0.55957-0.57129
			c-0.3418-0.35352-0.71484-0.7334-1.10547-1.09375C10.74646,5.223,10.11756,4.94566,9.45936,4.94566
			c-0.66113,0-1.30078,0.27832-1.85059,0.80566l-2.0293,2.04785C4.85877,8.5189,4.44861,9.39781,4.35877,10.41197z M8.39002,6.5482
			C8.7367,6.22203,9.10877,6.0521,9.47107,6.0521c0.46094,0,0.82324,0.2666,1.04492,0.49023
			c0.37793,0.35352,0.72656,0.70752,1.0918,1.08545l2.1875,2.19873c0.72852,0.729,0.72852,1.46826,0,2.19775l-0.18555,0.18652
			c-0.10938,0.11084-0.21777,0.2207-0.3291,0.32812c-0.45801,0.46826-0.95996,0.97363-1.50098,1.45801
			c-0.41699,0.41846-0.37402,0.78369-0.26758,1.11865c0.41895,1.02295,1.00098,1.97217,1.89746,3.11035
			c1.63184,2.00879,3.34082,3.56348,5.22754,4.75684c0.23242,0.14844,0.47559,0.26953,0.70898,0.38672
			c0.22168,0.11035,0.43164,0.21582,0.60938,0.3252c0.2168,0.11426,0.36914,0.15332,0.5293,0.15332
			c0.39062,0,0.63574-0.24512,0.72754-0.33691l2.03418-2.03516c0.2373-0.2373,0.61621-0.51953,1.0752-0.51953
			c0.49707,0,0.86621,0.32324,1.04199,0.51562l3.28223,3.28223c0.70508,0.69922,0.70898,1.48438,0.01074,2.21094
			c-0.19727,0.21191-0.39844,0.4082-0.61133,0.61523l-0.12109,0.11816c-0.37207,0.35449-0.76562,0.74023-1.13281,1.17285
			c-0.66309,0.70801-1.43164,1.03418-2.42773,1.03418c-0.09375,0-0.19531,0-0.29004-0.00684
			c-1.80957-0.11523-3.48047-0.81738-4.73242-1.41602c-3.4043-1.64746-6.38672-3.9834-8.86523-6.94336
			c-2.04395-2.46191-3.41895-4.75195-4.32715-7.20703c-0.56445-1.51025-0.77441-2.69189-0.68164-3.83203
			c0.06445-0.75732,0.35645-1.38623,0.89355-1.92334L8.39002,6.5482z"/>
		<path class="st0" d="M18.99158,9.3065c0.08301,0.11719,0.20703,0.19482,0.34863,0.21777h0.00098
			c1.60449,0.27002,3.07129,1.03076,4.24121,2.2002c1.16211,1.16162,1.92285,2.62793,2.19922,4.23975
			c0.05078,0.29687,0.33398,0.48877,0.6377,0.45068c0.30469-0.04932,0.50781-0.33691,0.45801-0.64209
			c-0.31152-1.83252-1.17871-3.50391-2.50586-4.83154c-1.32715-1.32715-2.99902-2.19385-4.83398-2.50635
			c-0.03125-0.00537-0.0625-0.00781-0.09277-0.00781c-0.2666,0-0.49902,0.18799-0.54688,0.45947
			C18.87146,9.0355,18.90467,9.18443,18.99158,9.3065z"/>
		<path class="st0" d="M19.58142,4.41392c2.81738,0.47754,5.39258,1.81201,7.44629,3.85889
			c2.04492,2.04639,3.37988,4.62158,3.85938,7.44775c0.05078,0.29883,0.33594,0.48779,0.64062,0.44971
			c0.14648-0.02197,0.27148-0.09912,0.35645-0.21777c0.08594-0.11963,0.11816-0.26416,0.09277-0.40723v-0.00244
			c-0.52051-3.05469-1.96387-5.8374-4.17285-8.04639s-4.99121-3.65186-8.0459-4.17236
			c-0.03125-0.00586-0.06348-0.0083-0.09375-0.0083c-0.26074,0-0.49219,0.19043-0.54102,0.46045
			C19.07459,4.07798,19.27576,4.36021,19.58142,4.41392z"/>
	</g>
</g>
</svg>
