<svg id="Capa_1" xmlns="http://www.w3.org/2000/svg" viewBox="0 0 36.321 36.321">
    <style>
        .st0{fill:#f63440}
    </style>
    <path class="st0" d="M4.359 10.412c-.138 1.68.36 3.262.747 4.306.957 2.581 2.39 4.97 4.51 7.519 2.586 3.087 5.694 5.521 9.239 7.236 1.355.642 3.167 1.396 5.143 1.522.118.005.245.011.36.011 1.29 0 2.376-.46 3.224-1.369l.04-.046c.298-.361.634-.685.99-1.028l.07-.069c.255-.243.514-.496.767-.76.543-.566.829-1.217.829-1.886 0-.674-.291-1.318-.842-1.863l-3.272-3.283c-1.058-1.104-2.585-1.108-3.688-.002l-2.013 2.004-.163-.087a19.813 19.813 0 0 0-.347-.18l-.107-.057a7.323 7.323 0 0 1-.606-.325c-1.787-1.134-3.408-2.61-4.96-4.516-.757-.958-1.262-1.756-1.639-2.59l-.075-.164.134-.123c.447-.41.867-.836 1.273-1.25l.599-.605c.565-.565.864-1.215.864-1.882 0-.666-.299-1.316-.864-1.882L12.948 7.42a25.725 25.725 0 0 1-.56-.571 27.332 27.332 0 0 0-1.105-1.094c-.537-.531-1.165-.808-1.824-.808-.66 0-1.3.278-1.85.805L5.579 7.8a4.113 4.113 0 0 0-1.22 2.613zM8.39 6.548c.347-.326.719-.496 1.081-.496.461 0 .823.267 1.045.49.378.354.727.708 1.092 1.086l2.187 2.199c.729.729.729 1.468 0 2.197l-.185.187c-.11.11-.218.22-.33.328-.457.468-.96.974-1.5 1.458-.417.418-.374.784-.268 1.119.419 1.023 1.001 1.972 1.898 3.11 1.631 2.009 3.34 3.563 5.227 4.757.232.148.476.27.71.386.22.11.43.216.608.326.217.114.37.153.53.153.39 0 .635-.245.727-.337l2.034-2.035c.238-.237.617-.52 1.076-.52.497 0 .866.324 1.042.516l3.282 3.282c.705.7.709 1.485.01 2.211-.197.212-.398.408-.61.615l-.122.119c-.372.354-.765.74-1.133 1.172-.663.708-1.431 1.035-2.427 1.035-.094 0-.196 0-.29-.007-1.81-.115-3.48-.818-4.733-1.416-3.404-1.648-6.387-3.984-8.865-6.944-2.044-2.462-3.419-4.752-4.327-7.207-.565-1.51-.775-2.692-.682-3.832a2.973 2.973 0 0 1 .894-1.923L8.39 6.548zM18.992 9.306a.528.528 0 0 0 .348.218h.001a7.808 7.808 0 0 1 4.241 2.2 7.84 7.84 0 0 1 2.2 4.24c.05.297.334.489.637.45a.556.556 0 0 0 .458-.641 8.92 8.92 0 0 0-2.506-4.832 8.924 8.924 0 0 0-4.834-2.506.553.553 0 0 0-.64.452.552.552 0 0 0 .095.42zM19.581 4.414c2.818.477 5.393 1.812 7.447 3.859a13.74 13.74 0 0 1 3.86 7.448c.05.298.335.487.64.45a.53.53 0 0 0 .356-.219.532.532 0 0 0 .093-.407v-.002c-.52-3.055-1.964-5.838-4.173-8.047s-4.991-3.651-8.046-4.172a.555.555 0 0 0-.635.452.556.556 0 0 0 .458.638z"/>
</svg>
