<svg id="Слой_1" xmlns="http://www.w3.org/2000/svg" viewBox="0 0 98 112">
    <style>
        .st0{fill:#f63440}
    </style>
    <path class="st0" d="M96.88 86.27a8.332 8.332 0 0 0-1.845-3.38h-.001l-.994-1.104 1.024-1.096a8.285 8.285 0 0 0-.03-11.08l-1.03-1.067 1.038-1.112a8.205 8.205 0 0 0 2.105-5.534c-.004-4.583-3.736-8.315-8.318-8.321H67.212l.731-2.157a63.3 63.3 0 0 0 2.644-16.311v-3.315c-.007-6.41-5.229-11.632-11.64-11.64h-3.34c-.769 0-1.428.517-1.612 1.263l-1.815 7.237a42.48 42.48 0 0 1-7.6 15.313c-3.849 4.914-8.298 8.187-12.527 9.216l-1.309.284V46.89H.826v63.12h29.918v-6.003l.252.083 12.353 4.117a34.328 34.328 0 0 0 10.99 1.804h27.849c4.582-.004 8.315-3.737 8.318-8.32a8.07 8.07 0 0 0-.572-3.057l-.657-1.72 1.776-.472c4.41-1.197 7.025-5.76 5.826-10.173zm-69.492 20.428H4.184V50.295h23.204v56.403zM80.98 69.716c.31.317.725.494 1.168.499l.039.19v-.19h6.645a4.93 4.93 0 0 1 3.505 1.45 4.929 4.929 0 0 1 1.456 3.508 4.931 4.931 0 0 1-1.45 3.509 4.929 4.929 0 0 1-3.507 1.455h-6.65a1.68 1.68 0 0 0 0 3.357h6.642c1.326.003 2.57.522 3.506 1.46s1.45 2.187 1.447 3.512a4.971 4.971 0 0 1-4.953 4.952h-6.641a1.68 1.68 0 0 0-1.678 1.679 1.68 1.68 0 0 0 1.678 1.678 4.97 4.97 0 0 1 4.957 4.966 4.97 4.97 0 0 1-4.957 4.957H54.366a32.032 32.032 0 0 1-9.962-1.604l-13.66-4.553V56.893l1.32-.256c4.818-.925 9.65-4.088 13.976-9.149a46.881 46.881 0 0 0 9.406-18.045l1.493-5.952h2.03c4.56.005 8.276 3.72 8.282 8.28v3.32c0 4.675-1.478 13.528-3.314 17.513l-.394.972h-7.916-.004c-.924 0-1.677.75-1.68 1.675a1.683 1.683 0 0 0 1.676 1.684h33.218c1.322 0 2.565.514 3.501 1.448a4.928 4.928 0 0 1 1.458 3.506 4.927 4.927 0 0 1-1.448 3.51 4.928 4.928 0 0 1-3.506 1.458h-6.654a1.682 1.682 0 0 0-1.678 1.678c-.006.446.162.864.471 1.181z"/>
    <path class="st0" d="M13.692 97.192c.56.559 1.303.866 2.094.866h.002a2.964 2.964 0 0 0 2.96-2.961 2.97 2.97 0 0 0-2.962-2.963 2.966 2.966 0 0 0-2.962 2.964c0 .79.309 1.534.868 2.094zM62.267.012A1.683 1.683 0 0 0 60.59 1.69v6.861a1.68 1.68 0 0 0 1.678 1.679 1.68 1.68 0 0 0 1.678-1.679V1.691c0-.925-.753-1.678-1.678-1.68zM39.45 10.65c.003.46.182.89.502 1.214l4.69 4.688c.659.649 1.732.646 2.392-.008.31-.307.48-.732.468-1.168a1.739 1.739 0 0 0-.506-1.219l-4.684-4.683a1.696 1.696 0 0 0-1.193-.485 1.7 1.7 0 0 0-1.201.492c-.31.307-.48.733-.468 1.168zM77.531 14.143c-.32.319-.495.742-.495 1.193 0 .45.175.874.493 1.192a1.715 1.715 0 0 0 2.397-.006l4.683-4.684a1.692 1.692 0 0 0 0-2.387 1.736 1.736 0 0 0-2.396.01l-4.682 4.682z"/>
</svg>
