<?xml version="1.0" encoding="utf-8"?>
<!-- Generator: Adobe Illustrator 22.1.0, SVG Export Plug-In . SVG Version: 6.00 Build 0)  -->
<svg version="1.1" id="Слой_1" xmlns="http://www.w3.org/2000/svg" xmlns:xlink="http://www.w3.org/1999/xlink" x="0px" y="0px"
	 viewBox="0 0 98 112" style="enable-background:new 0 0 98 112;" xml:space="preserve">
<style type="text/css">
	.st0{fill:#F63440;}
</style>
<path class="st0" d="M96.8790817,86.2704697c-0.3390656-1.2489395-0.977005-2.4180145-1.8442612-3.3798294l-0.0009766-0.0004959
	l-0.9936676-1.1044006l1.0240402-1.0955734c2.8232269-3.163269,2.8124466-7.9282608-0.0303726-11.0802612l-1.0299301-1.0666733
	l1.0377655-1.1117477c1.3660431-1.5194092,2.1147232-3.4861603,2.1049271-5.5347404
	c-0.0039215-4.5827217-3.7355576-8.314846-8.3177872-8.3207283H67.2121735l0.731041-2.1573524
	c1.5894699-5.2931824,2.4792633-10.7833328,2.643898-16.3107224l-0.0009842-3.3146706
	c-0.0058746-6.4108105-5.2280121-11.6324577-11.6388245-11.6398067H55.627243c-0.0068588,0-0.0137177,0-0.0205803,0
	c-0.7682762,0-1.4277802,0.5164318-1.612011,1.2621708l-1.8148613,7.236908
	c-1.4846191,5.5979462-4.0413017,10.749527-7.5994873,15.3136253c-3.8492317,4.9139442-8.2981873,8.1864777-12.5276375,9.2154198
	l-1.3082294,0.2841873v-6.5744629H0.8261724v63.120327h29.9182644v-6.0041351l0.2518463,0.0832977l12.3522282,4.1167526
	c3.5513268,1.1974945,7.2486649,1.8040848,10.9901009,1.8040848c0.0098,0,0.0186195,0,0.0274391,0h27.8216705
	c4.5822296-0.0039215,8.3148422-3.7365341,8.3187637-8.3197479c0.007843-1.0524597-0.184227-2.0804291-0.5722885-3.0564499
	l-0.6575394-1.720787l1.7766418-0.4713593C95.4630585,95.2458038,98.0775528,90.6821899,96.8790817,86.2704697z
	 M27.3876286,106.6984406H4.1844497V50.2946701h23.2031784V106.6984406z M80.9814072,69.7162323
	c0.3096619,0.3165207,0.7241821,0.4938965,1.1671143,0.4987946l0.0391998,0.1905975v-0.1905975h6.641098
	c0.0009766,0,0.0029373,0,0.0039215,0c1.3229218,0,2.5684357,0.5149612,3.5052643,1.4503174
	c0.9378128,0.9363403,1.4552231,2.1818542,1.4561996,3.5072327c0.0009842,1.3248901-0.5144653,2.5713806-1.4503174,3.5091858
	c-0.9368286,0.9378128-2.1813583,1.4547348-3.5072327,1.4557114h-6.6489334c-0.9250717,0-1.6776733,0.7530899-1.6776733,1.6786499
	s0.7526016,1.6786499,1.6776733,1.6786499h6.641098c1.3258667,0.002449,2.5703964,0.5208435,3.5062485,1.4596329
	s1.4493408,2.1862564,1.4473801,3.5111465c-0.0058823,2.7271957-2.227417,4.9477539-4.9536285,4.952652h-6.641098
	c-0.9250717,0-1.6776733,0.7526016-1.6776733,1.6786499c0,0.9250641,0.7526016,1.6776657,1.6776733,1.6776657
	c2.7350311,0.0039215,4.9595108,2.2313385,4.95755,4.9663696c-0.0029449,2.7311096-2.2264404,4.9546127-4.95755,4.95755H54.3660507
	c-3.3906136-0.0058746-6.7420311-0.5458298-9.9621391-1.6041718l-13.6594753-4.5528336V56.8926506l1.3199863-0.2557678
	c4.817421-0.9245796,9.6505165-4.0883369,13.9760017-9.1487808c4.3970222-5.2123375,7.6494637-11.4526367,9.405529-18.0447388
	l1.4934387-5.9526863h2.0294685c4.5606728,0.0048981,8.2756538,3.7193871,8.2825127,8.2800598v3.3210373
	c0,4.6738586-1.4787445,13.5271873-3.3141823,17.5121384l-0.39394,0.9721069h-7.916008c-0.0009804,0-0.0029411,0-0.0039215,0
	c-0.9240875,0-1.6776657,0.7506409-1.6796265,1.6752205c-0.0019608,0.9260483,0.7496605,1.6810989,1.6757088,1.6840363h33.2094154
	c0.0029373,0,0.0048981,0,0.0078354,0c1.3219528,0,2.565506,0.5139847,3.5013504,1.4478722
	c0.9387894,0.9358482,1.4561996,2.1808739,1.4581604,3.5062485c0.0019608,1.3248901-0.5125122,2.5713806-1.4483566,3.5096817
	c-0.9358521,0.9383011-2.181366,1.4561996-3.5062485,1.4576721h-6.6538391
	c-0.9240952,0.0009766-1.6776733,0.7540665-1.6776733,1.6786499C80.5041733,68.9807816,80.6717453,69.3992233,80.9814072,69.7162323
	z"/>
<path class="st0" d="M13.6923828,97.1919785c0.5595493,0.5585709,1.3028393,0.866272,2.0931664,0.866272
	c0.0009804,0,0.0014696,0,0.0019598,0c1.6330805,0,2.9614-1.3278275,2.9614-2.9613953
	c-0.0019608-1.6316147-1.3312588-2.9614029-2.9633598-2.9623795c-1.6335716,0.0009766-2.9618893,1.3297882-2.9613991,2.963356
	C12.8246403,95.888649,13.1328335,96.632431,13.6923828,97.1919785z"/>
<path class="st0" d="M62.2673607,0.0116422c-0.9250679,0.00147-1.6786461,0.755049-1.6786461,1.6791387v6.8615875
	c0,0.92556,0.7525978,1.6786489,1.6786461,1.6786489c0.9250717,0,1.6776695-0.753089,1.6776695-1.6786489V1.6907808
	C63.9450302,0.7662011,63.1924324,0.0131121,62.2673607,0.0116422z"/>
<path class="st0" d="M39.4502831,10.6494541c0.0029411,0.4605751,0.1812897,0.8907719,0.5017319,1.2146444l4.689045,4.6875753
	c0.6595039,0.6492138,1.7325478,0.6462746,2.3930321-0.0078411c0.3096619-0.3067226,0.4801712-0.7320194,0.4674339-1.1676064
	c-0.0039215-0.462534-0.1832504-0.8942003-0.5056534-1.2190533l-4.6841469-4.6831656
	c-0.3292618-0.3238716-0.7614174-0.4850731-1.1925926-0.4850731c-0.4350967,0-0.8711739,0.1641407-1.201416,0.4924231
	C39.6080551,9.7880812,39.437542,10.2138681,39.4502831,10.6494541z"/>
<path class="st0" d="M77.5310135,14.1434546c-0.3194656,0.3184824-0.494873,0.7418194-0.494873,1.1921053
	c-0.0009842,0.450285,0.1744308,0.8741112,0.4929123,1.1925945c0.6614609,0.6482353,1.737442,0.6477451,2.3969498-0.0063686
	l4.6831665-4.6841459c0.6565628-0.6575441,0.6565628-1.7286263,0-2.3866606
	c-0.3331833-0.3160324-0.7614212-0.4738045-1.1906357-0.4738045c-0.4341202,0-0.8682327,0.1612015-1.2053375,0.4845839
	L77.5310135,14.1434546z"/>
</svg>
