<?xml version="1.0" encoding="utf-8"?>
<!-- Generator: Adobe Illustrator 22.1.0, SVG Export Plug-In . SVG Version: 6.00 Build 0)  -->
<svg version="1.1" id="Слой_1" xmlns="http://www.w3.org/2000/svg" xmlns:xlink="http://www.w3.org/1999/xlink" x="0px" y="0px"
	 viewBox="0 0 58.3 51.7" style="enable-background:new 0 0 58.3 51.7;" xml:space="preserve">
<style type="text/css">
	.st0{fill:#191919;}
</style>
<g>
	<path class="st0" d="M18.5,22.5c-0.5,0-0.9,0.4-0.9,0.9v10.8c0,0.5,0.4,0.9,0.9,0.9c0.5,0,0.9-0.4,0.9-0.9c0,0,0,0,0,0V23.4
		C19.3,22.9,18.9,22.5,18.5,22.5z"/>
	<path class="st0" d="M29.2,22.5c-0.5,0-0.9,0.4-0.9,0.9v10.8c0,0.5,0.4,0.9,0.9,0.9s0.9-0.4,0.9-0.9c0,0,0,0,0,0V23.4
		C30,22.9,29.7,22.5,29.2,22.5z"/>
	<path class="st0" d="M39.9,22.5c-0.5,0-0.9,0.4-0.9,0.9v10.8c0,0.5,0.4,0.9,0.9,0.9s0.9-0.4,0.9-0.9c0,0,0,0,0,0V23.4
		C40.7,22.9,40.4,22.5,39.9,22.5C39.9,22.5,39.9,22.5,39.9,22.5z"/>
	<path class="st0" d="M53.8,26.9v-8.7H4.6v8.7H0v15.4c0,3,2.4,5.4,5.4,5.4h0.8v3.1c0,0.5,0.4,0.9,0.9,0.9c0.5,0,0.9-0.4,0.9-0.9
		v-3.1h42.3v3.1c0,0.5,0.4,0.9,0.9,0.9s0.9-0.4,0.9-0.9v-3.1h0.8c3,0,5.4-2.4,5.4-5.4V26.9H53.8z M9.1,46H5.4c-2,0-3.7-1.7-3.7-3.7
		c0,0,0,0,0,0V28.6h4.5c1.6,0,2.9,1.3,2.9,2.9c0,0,0,0,0,0L9.1,46z M47.5,46H10.9v-6.6h36.6V46z M47.5,31.5v6.1H10.9v-6.1
		c0-2.5-2-4.6-4.6-4.7v-7H52v7C49.5,26.9,47.5,29,47.5,31.5z M56.6,42.3c0,2-1.7,3.7-3.7,3.7h-3.7V31.5c0-1.6,1.3-2.9,2.9-2.9
		c0,0,0,0,0,0h4.5L56.6,42.3z"/>
</g>
</svg>
