<svg id="Слой_1" xmlns="http://www.w3.org/2000/svg" viewBox="0 0 58.3 51.7">
    <style>
        .st0{fill:#191919}
    </style>
    <path class="st0" d="M18.5 22.5c-.5 0-.9.4-.9.9v10.8c0 .5.4.9.9.9s.9-.4.9-.9V23.4c-.1-.5-.5-.9-.9-.9zM29.2 22.5c-.5 0-.9.4-.9.9v10.8c0 .5.4.9.9.9s.9-.4.9-.9V23.4c-.1-.5-.4-.9-.9-.9zM39.9 22.5c-.5 0-.9.4-.9.9v10.8c0 .5.4.9.9.9s.9-.4.9-.9V23.4c-.1-.5-.4-.9-.9-.9z"/>
    <path class="st0" d="M53.8 26.9v-8.7H4.6v8.7H0v15.4c0 3 2.4 5.4 5.4 5.4h.8v3.1c0 .5.4.9.9.9s.9-.4.9-.9v-3.1h42.3v3.1c0 .5.4.9.9.9s.9-.4.9-.9v-3.1h.8c3 0 5.4-2.4 5.4-5.4V26.9h-4.5zM9.1 46H5.4c-2 0-3.7-1.7-3.7-3.7V28.6h4.5c1.6 0 2.9 1.3 2.9 2.9V46zm38.4 0H10.9v-6.6h36.6V46zm0-14.5v6.1H10.9v-6.1c0-2.5-2-4.6-4.6-4.7v-7H52v7c-2.5.1-4.5 2.2-4.5 4.7zm9.1 10.8c0 2-1.7 3.7-3.7 3.7h-3.7V31.5c0-1.6 1.3-2.9 2.9-2.9h4.5v13.7z"/>
</svg>
