<svg xmlns="http://www.w3.org/2000/svg" viewBox="0 0 32 32">
  <title>vk</title>
  <g id="Слой_2" data-name="Слой 2">
    <g id="Logo">
      <g>
        <circle cx="16" cy="16" r="16" fill="#f63440"/>
        <path d="M22.31078,17.91177a17.71164,17.71164,0,0,1,2.53463,2.72545,1.14108,1.14108,0,0,1,.21518.93257.52115.52115,0,0,1-.55.40662l-3.15612.14331a2.42449,2.42449,0,0,1-1.62584-.81292,6.73983,6.73983,0,0,1-1.29136-1.43468.82758.82758,0,0,0-.69331-.3826.56268.56268,0,0,0-.64557.47844l-.09583,1.24331a.83107.83107,0,0,1-.2867.5737.92017.92017,0,0,1-.40634.21548q-.1678.02358-.55023.07183a10.22358,10.22358,0,0,1-2.17581-.12,4.30255,4.30255,0,0,1-1.69767-.693,10.194,10.194,0,0,1-1.21953-.95692q-.4541-.43052-1.31483-1.38662a40.83809,40.83809,0,0,1-3.4909-5.78632,4.99822,4.99822,0,0,1-.47844-1.62584,1.1776,1.1776,0,0,1,.71766-.23922,14.52477,14.52477,0,0,1,1.53-.02405q1.00431.02457,1.19546.02405.47859-.04763.76544.52626a20.73427,20.73427,0,0,0,2.34293,4.16017q.76528.71719,1.00436-.23926a10.808,10.808,0,0,0,.09587-2.34289,1.66764,1.66764,0,0,0-1.19549-1.86506q.28663-.76528,2.00841-.76514.43046,0,1.05214.04752c.414.03206.63747.04809.66892.04809q1.43538,0,1.43506,1.14767-.00046.1434-.04779.69334-.04815.54975-.07186,1.05214-.024.50219-.024,1.05215a2.66135,2.66135,0,0,0,.1437.93249.75817.75817,0,0,0,.38253.47817q.26269-.19149.50191-.35852a2.16455,2.16455,0,0,0,.50248-.55031q.26311-.38236.40627-.5737a6.8259,6.8259,0,0,0,.43039-.71732,5.90144,5.90144,0,0,0,.33475-.66961q.04763-.14283.33448-.74109.28716-.59784.287-.59774l.07152-.14362a1.27059,1.27059,0,0,1,.311-.50187,1.47468,1.47468,0,0,1,.5977-.07187h2.965a4.19379,4.19379,0,0,1,.62152.02408.79574.79574,0,0,1,.287.21514q.33479.43056-.59774,1.86506A19.40759,19.40759,0,0,1,22.64557,15.76Q21.45024,17.09875,22.31078,17.91177Z" fill="#fff"/>
      </g>
    </g>
  </g>
</svg>
