<?xml version="1.0" encoding="utf-8"?>
<!-- Generator: Adobe Illustrator 22.1.0, SVG Export Plug-In . SVG Version: 6.00 Build 0)  -->
<svg version="1.1" id="Слой_1" xmlns="http://www.w3.org/2000/svg" xmlns:xlink="http://www.w3.org/1999/xlink" x="0px" y="0px"
	 viewBox="0 0 98 112" style="enable-background:new 0 0 98 112;" xml:space="preserve">
<style type="text/css">
	.st0{fill:#F63440;}
</style>
<path class="st0" d="M68.9287872,1.7245787V1.724517l-0.0951462,0.0440228
	c-0.0312653-0.0474714-0.0651016-0.0931994-0.1013565-0.1369801c-0.0113373-0.0147765-0.0237427-0.0286974-0.0371246-0.0416491
	V1.5894177l-0.02108-0.0226073c-0.0284195-0.0326943-0.0585709-0.0638481-0.0903168-0.0933272
	c-0.0286713-0.0273911-0.058815-0.0531853-0.0903168-0.077266c-0.0331116-0.028105-0.0531845-0.0446597-0.0732574-0.0602177
	c-0.048172-0.0351238-0.0983505-0.0667329-0.1495209-0.097335l0.0260925-0.1043023h-0.0000687L68.245575,1.2236102
	c-0.2450027-0.1409667-0.5221786-0.2164804-0.8048325-0.2192709L30.6545811,1.0008446
	c-0.5324249-0.0170197-1.0403175,0.2240318-1.3637886,0.6472698C29.27775,1.6641757,29.2677116,1.6787268,29.2576828,1.693278
	L29.217535,1.747967c-0.0140495,0.0180655-0.0280952,0.0366341-0.0411053,0.0561998L15.7261629,22.9248276L38.4088097,55.192131
	c0.0070267,0.0095367,0.0150528,0.0195732,0.0240898,0.0296021l0.0632172,0.079277
	c0.0291023,0.0346222,0.0612144,0.0712547,0.0963364,0.1063805c0.0190659,0.0195236,0.0371284,0.037632,0.0562019,0.055191
	c0.0321121,0.0306053,0.0662308,0.0587082,0.1003456,0.0857964c0.024086,0.0195732,0.0461693,0.0371361,0.0702477,0.0541916
	c0.0331192,0.0230827,0.0662384,0.0451546,0.1003532,0.0657654c0.0280952,0.0175629,0.0562019,0.0346222,0.0842667,0.0506821
	c0.0321121,0.0165558,0.066227,0.0321159,0.1013527,0.0481682c0.0401459,0.0190697,0.0662384,0.0316162,0.0943336,0.0421295
	c0.031105,0.012043,0.0622215,0.0215797,0.0943336,0.0316124l0.0280952,0.0090332
	c0.0270996,0.0090294,0.0531921,0.0180626,0.0812874,0.0250816c0.0270996,0.0070305,0.0531883,0.0115433,0.079277,0.0165672
	l0.0612144,0.0115395c0.0240898,0.0050163,0.0491753,0.0095367,0.0732574,0.0130424
	c0.0250854,0.0030098,0.0521851,0.0040169,0.0782738,0.0055199l0.0792809,0.005024
	c0.0190697,0.001503,0.0371246,0.0030136,0.0562019,0.0030136h3.7772636v4.4576492l-0.0802879,0.0180664
	c-13.8051968,3.0327492-22.5379944,16.6826096-19.5052433,30.4878006
	c3.0327511,13.8052063,16.6826115,22.538002,30.4878063,19.505249
	c13.8052063-3.0327454,22.5379944-16.6826096,19.5052414-30.4878082
	c-2.1417084-9.7491379-9.7561035-17.363533-19.5052414-19.5052414l-0.0802765-0.0180664v-4.4576721h3.7792664
	c0.5651894-0.0003586,1.0947227-0.2761765,1.4189835-0.7390938l22.645546-32.2562675L68.8587418,1.8031598L68.9287872,1.7245787z
	 M64.4983902,4.4710369L58.4802933,15.703475h-18.874279l-1.2895241-2.3908958l-4.7687492-8.8415422H64.4983902z
	 M56.621769,19.1736565l-7.5485001,14.0899773l-0.0903168-0.1685867l-7.5073776-13.9213905H56.621769z M39.6310959,50.8900261
	l-0.0963364-0.1364746L19.9128666,22.7858219l0.0371284-0.0577011L30.5140877,6.1599932l3.7973289,7.0382137l12.7949371,23.7318001
	L39.6310959,50.8900261z M65.7759171,70.957489c7.9785004,9.2546616,6.9439545,23.2249069-2.3107033,31.2034073
	c-9.2546692,7.9784927-23.2249069,6.9439621-31.2034035-2.3107071s-6.9439602-23.2249069,2.3107033-31.2033997
	c3.1303177-2.6986694,6.9539604-4.4665527,11.0376129-5.1033325c0.2569008-0.0401459,0.5168152-0.0742683,0.7767296-0.1053696
	l0.1364746-0.0160637c0.5439148-0.0602112,1.0898285-0.1013565,1.6227036-0.121418l0.0270882-0.0010262
	c0.5619774-0.0230827,1.1359901-0.0230827,1.6999741,0l0.0180626,0.0010262
	c0.5258484,0.0200691,1.0737724,0.0612144,1.6277313,0.1224289l0.1305046,0.0150528
	c0.2579079,0.030098,0.5148087,0.0648842,0.7707062,0.1043663C57.609642,64.354599,62.3425064,66.9822464,65.7759171,70.957489z
	 M47.0782471,59.8826065v-3.9528809h3.8806305v3.9528809l-0.2870102-0.0170593
	c-0.1996994-0.0130196-0.4004021-0.0233879-0.602108-0.0311165l-0.0772743-0.0030098l-0.1495285-0.0060234
	c-0.5479202-0.0180626-1.0998611-0.0180626-1.6477852,0l-0.1525383,0.0060234l-0.0742645,0.0030098
	c-0.2017136,0.0080261-0.4027481,0.0184021-0.6031151,0.0311165L47.0782471,59.8826065z M78.1403198,22.787878l-0.0391235,0.0567036
	L57.3061562,52.4600677h-14.578186l0.081295-0.1515312L67.5280609,6.1664877l0.0943298,0.1479754L78.1403198,22.787878z"/>
<path class="st0" d="M32.3635864,79.1271896v2.0562439h2.9322929V90.43396h-3.4009476v2.7275696h9.7522469v-2.7276382h-2.9322929
	V77.7162094H36.182991c-0.5488281,0.3224945-1.1226807,0.6003571-1.7160225,0.8309174
	C33.7840424,78.8012848,33.080246,78.995369,32.3635864,79.1271896z"/>
<path class="st0" d="M52.532402,79.4101791c-0.43927-0.6356888-1.0323944-1.149765-1.7240486-1.4942551
	c-1.4250107-0.6609802-3.0687714-0.6609802-4.4937859,0c-0.6917725,0.3443146-1.284935,0.8584137-1.7240372,1.4942551
	c-0.5163193,0.7594528-0.8947449,1.6039429-1.1179237,2.494751c-0.2854919,1.1348267-0.4211159,2.3021469-0.4034081,3.4721985
	c-0.0159683,1.1785583,0.1196136,2.3542786,0.4034081,3.4982758c0.2215195,0.9024658,0.600296,1.7588425,1.1189499,2.5298843
	c0.4399529,0.6454086,1.0325241,1.172142,1.7250595,1.5333862c1.4166489,0.6917572,3.0731163,0.6917572,4.4897652,0
	c0.6921577-0.3617935,1.2846069-0.8884125,1.7250557-1.5333862c0.5179405-0.7714157,0.896637-1.6276627,1.1188927-2.5298615
	c0.2837982-1.1439972,0.419384-2.3197174,0.4034157-3.4982758c0.017704-1.1700516-0.1179237-2.3373795-0.4034157-3.4722061
	C53.4262199,81.0144653,53.047863,80.1701126,52.532402,79.4101791z M50.6708908,88.0304413
	c-0.0737305,0.5789871-0.2302055,1.1443863-0.4646339,1.678894c-0.1509514,0.3632889-0.4049072,0.6744461-0.7305679,0.8951416
	c-0.2765846,0.1640854-0.5926247,0.2497787-0.9142113,0.2478714c-0.3137398-0.0000381-0.6215172-0.0857468-0.8901253-0.2478714
	c-0.3256569-0.2206955-0.5796165-0.5318527-0.7305679-0.8951416c-0.2348938-0.5348587-0.3952789-1.0994263-0.4766655-1.6778946
	c-0.1284027-0.878746-0.1864548-1.7663422-0.1736145-2.6543121c-0.0132065-0.8839951,0.0448532-1.7676163,0.1736145-2.6422806
	c0.0783539-0.564064,0.2393036-1.113533,0.4776726-1.6307373c0.1556168-0.3470993,0.4100685-0.6406479,0.7315636-0.8439636
	c0.5592766-0.3131332,1.2410927-0.3131332,1.8003693,0c0.3212509,0.2031708,0.5756569,0.496315,0.7315674,0.8429718
	c0.2380333,0.5171356,0.3950844,1.0678177,0.4656372,1.6327209c0.1198311,0.8751526,0.1738358,1.7580566,0.1615601,2.6412888
	C50.8444138,86.2643433,50.7903976,87.1512299,50.6708908,88.0304413z"/>
<path class="st0" d="M65.2851791,79.4101791c-0.4392624-0.6356888-1.0323944-1.149765-1.7240562-1.4942551
	c-1.4249992-0.660965-3.068737-0.660965-4.4937325,0c-0.6916618,0.3444901-1.28479,0.8585663-1.7240601,1.4942551
	c-0.5163193,0.7594528-0.8947449,1.6039429-1.1179237,2.494751c-0.2854958,1.1348267-0.4211197,2.3021469-0.4034195,3.4721985
	c-0.0159683,1.1785583,0.1196175,2.3542786,0.4034195,3.4982758c0.2215157,0.9024658,0.6002769,1.7588425,1.1189308,2.5298843
	c0.4404488,0.6449738,1.0329018,1.1715927,1.7250595,1.5333862c1.4166489,0.6917572,3.0731087,0.6917572,4.4897652,0
	c0.6921577-0.3617935,1.2846107-0.8884125,1.7250557-1.5333862c0.518631-0.7710419,0.8973846-1.6274109,1.1188889-2.5298615
	c0.2837982-1.1439972,0.4193802-2.3197174,0.4034119-3.4982758c0.0177002-1.1700516-0.1179123-2.3373795-0.4034119-3.4722061
	C66.1799316,81.0141373,65.801506,80.169632,65.2851791,79.4101791z M63.4246483,88.0304489
	c-0.0741959,0.5790024-0.2310066,1.1443863-0.465641,1.678894c-0.1505127,0.3629532-0.4037399,0.6740723-0.7285728,0.8951416
	c-0.2773094,0.1641006-0.5939941,0.2497787-0.9162178,0.2478714c-0.3137054-0.0003052-0.6214142-0.0859985-0.8901253-0.2478714
	c-0.3256607-0.2206955-0.5796204-0.5318527-0.7305717-0.8951416c-0.2348938-0.5348587-0.3952827-1.0994263-0.4766769-1.6778946
	c-0.1283913-0.878746-0.1864433-1.7663345-0.1736069-2.6543121c-0.0132027-0.8839951,0.044857-1.7676163,0.1736069-2.6422806
	c0.0783653-0.564064,0.2393188-1.113533,0.477684-1.6307373c0.1556168-0.3470993,0.4100723-0.6406479,0.7315674-0.8439636
	c0.5594826-0.3136368,1.2418404-0.3136368,1.8013268,0c0.3207512,0.2034683,0.5747604,0.4965591,0.7305679,0.8429718
	c0.2377853,0.5172958,0.395153,1.067894,0.4666367,1.6327209c0.2140884,1.7583771,0.2140884,3.5362244,0,5.2946014H63.4246483z"/>
</svg>
