<svg id="Слой_1" xmlns="http://www.w3.org/2000/svg" viewBox="0 0 98 112">
    <style>
        .st0{fill:#f63440}
    </style>
    <path class="st0" d="M68.929 1.725l-.095.044a1.56 1.56 0 0 0-.139-.18l-.02-.022a1.216 1.216 0 0 0-.182-.17 2.078 2.078 0 0 0-.073-.061 1.957 1.957 0 0 0-.15-.097l.027-.105-.051.09a1.646 1.646 0 0 0-.805-.22l-36.786-.003a1.65 1.65 0 0 0-1.397.692l-.04.055a.937.937 0 0 0-.042.056l-13.45 21.12L38.41 55.193l.024.03.063.079a1.665 1.665 0 0 0 .253.247 1.32 1.32 0 0 0 .17.12l.085.051c.032.017.066.032.101.048.04.02.066.032.095.042.03.012.062.022.094.032l.028.009c.027.009.053.018.081.025.027.007.053.012.08.017l.06.011c.025.005.05.01.074.013.025.003.052.004.078.006l.08.005c.019.001.037.003.056.003h3.777v4.457l-.08.018C29.723 63.438 20.99 77.088 24.023 90.893c3.032 13.805 16.682 22.538 30.487 19.506 13.806-3.033 22.538-16.683 19.506-30.488A25.593 25.593 0 0 0 54.51 60.405l-.08-.018V55.93h3.78c.564 0 1.094-.276 1.418-.74l22.646-32.256-13.415-21.13.07-.08zm-4.43 2.746L58.48 15.703H39.606l-1.29-2.39-4.768-8.842h30.95zm-7.877 14.703l-7.549 14.09-.09-.169-7.507-13.921h15.146zM39.632 50.89l-.097-.136-19.622-27.968.037-.058L30.514 6.16l3.797 7.038L47.106 36.93l-7.475 13.96zm26.144 20.067c7.978 9.255 6.944 23.225-2.31 31.204-9.255 7.978-23.226 6.944-31.204-2.31s-6.944-23.226 2.31-31.204a22.125 22.125 0 0 1 11.815-5.209l.136-.016c.544-.06 1.09-.101 1.623-.121l.027-.001a20.875 20.875 0 0 1 1.7 0h.018c.526.02 1.074.062 1.628.123l.13.015c.258.03.515.065.771.104 5.19.813 9.923 3.44 13.356 7.415zM47.078 59.883V55.93h3.88v3.953l-.286-.017c-.2-.013-.4-.024-.602-.032l-.078-.003-.149-.006a25.06 25.06 0 0 0-1.648 0l-.152.006-.075.003c-.201.008-.402.019-.603.032l-.287.017zM78.14 22.788l-.039.057L57.306 52.46H42.728l.081-.151L67.53 6.166l.093.148L78.14 22.788z"/>
    <path class="st0" d="M32.364 79.127v2.056h2.932v9.251h-3.401v2.728h9.752v-2.728h-2.932V77.716h-2.532c-.549.323-1.123.6-1.716.831-.683.254-1.387.448-2.103.58zM52.532 79.41a4.575 4.575 0 0 0-1.724-1.494 5.34 5.34 0 0 0-4.493 0 4.57 4.57 0 0 0-1.724 1.494 7.815 7.815 0 0 0-1.118 2.495 13.4 13.4 0 0 0-.404 3.472c-.016 1.179.12 2.354.404 3.498.221.903.6 1.76 1.119 2.53a4.742 4.742 0 0 0 1.725 1.534 5.116 5.116 0 0 0 4.49 0 4.758 4.758 0 0 0 1.724-1.534 7.95 7.95 0 0 0 1.12-2.53c.283-1.144.419-2.32.403-3.498a13.401 13.401 0 0 0-.404-3.472 7.863 7.863 0 0 0-1.118-2.495zm-1.861 8.62a6.098 6.098 0 0 1-.465 1.68 2.016 2.016 0 0 1-.73.894 1.771 1.771 0 0 1-1.805 0 2.016 2.016 0 0 1-.73-.895 6.385 6.385 0 0 1-.477-1.678 16.69 16.69 0 0 1-.173-2.654c-.014-.884.044-1.767.173-2.642.078-.564.24-1.114.478-1.63.155-.348.41-.642.731-.845a1.843 1.843 0 0 1 1.8 0c.322.203.576.496.732.843a5.55 5.55 0 0 1 .466 1.633c.12.875.174 1.758.161 2.641.012.887-.042 1.774-.161 2.653zM65.285 79.41a4.575 4.575 0 0 0-1.724-1.494 5.34 5.34 0 0 0-4.494 0 4.575 4.575 0 0 0-1.724 1.494 7.815 7.815 0 0 0-1.118 2.495 13.4 13.4 0 0 0-.403 3.472c-.016 1.179.12 2.354.403 3.498.222.903.6 1.76 1.12 2.53a4.758 4.758 0 0 0 1.724 1.534 5.116 5.116 0 0 0 4.49 0 4.758 4.758 0 0 0 1.725-1.534 7.912 7.912 0 0 0 1.12-2.53c.283-1.144.418-2.32.403-3.498a13.4 13.4 0 0 0-.404-3.472 7.815 7.815 0 0 0-1.118-2.495zm-1.86 8.62a6.109 6.109 0 0 1-.466 1.68c-.15.362-.404.673-.729.894-.277.165-.594.25-.916.248-.313 0-.621-.086-.89-.248a2.016 2.016 0 0 1-.73-.895 6.385 6.385 0 0 1-.477-1.678 16.691 16.691 0 0 1-.174-2.654c-.013-.884.045-1.767.174-2.642.078-.564.24-1.114.478-1.63.155-.348.41-.642.731-.845a1.842 1.842 0 0 1 1.801 0c.321.204.575.497.731.843a5.59 5.59 0 0 1 .467 1.633 21.904 21.904 0 0 1 0 5.294z"/>
</svg>
